<svg width="396" height="241" viewBox="0 0 396 241" fill="none" xmlns="http://www.w3.org/2000/svg">
<g clip-path="url(#clip0_657_2225)">
<path d="M395.268 237.359H0.731934V240.066H395.268V237.359Z" fill="#85848B"/>
<path d="M313.308 189.569C313.308 191.651 300.38 197.72 285.025 197.72C269.669 197.72 257.705 191.651 257.705 189.569C257.705 187.487 270.151 188.157 285.521 188.157C300.892 188.157 313.308 187.483 313.308 189.569Z" fill="#504F60"/>
<path opacity="0.2" d="M313.308 189.569C313.308 191.651 300.38 197.72 285.025 197.72C269.669 197.72 257.705 191.651 257.705 189.569" fill="black"/>
<path d="M158.666 151.367C161.158 151.667 163.744 151.857 166.131 151.13C166.507 151.021 166.92 150.777 166.883 150.424C166.856 150.296 166.798 150.175 166.714 150.071C165.814 148.805 165.058 147.453 164.458 146.038C164.434 145.964 164.386 145.9 164.319 145.855C164.241 145.828 164.156 145.828 164.078 145.855C162.977 146.126 162.026 146.793 160.932 147.079C160.374 147.223 159.792 147.263 159.218 147.199C158.722 147.146 158.045 146.762 157.594 146.811C157.85 148.353 158.474 149.793 158.666 151.367Z" fill="#2EC1AC"/>
<path d="M205.8 147.46C207.443 146.402 209.146 145.29 210.115 143.656C210.185 143.558 210.225 143.445 210.232 143.328C210.215 143.213 210.167 143.103 210.093 143.01C209.169 141.632 207.98 140.427 206.586 139.457C205.858 139.939 205.201 140.509 204.631 141.151C204.218 141.56 203.075 142.209 203.063 142.834C203.063 143.187 203.5 143.596 203.703 143.893C203.977 144.274 204.236 144.662 204.484 145.057C204.627 145.251 205.932 147.383 205.8 147.46Z" fill="#2EC1AC"/>
<path d="M168.435 156.092C168.465 156.455 168.358 156.817 168.135 157.115C167.959 157.281 167.742 157.402 167.503 157.468C164.018 158.639 159.985 157.178 156.508 158.332C155.794 158.569 155.117 158.911 154.399 159.137C153.543 159.379 152.66 159.525 151.768 159.575C150.539 159.684 149.302 159.754 148.069 159.786C147.132 159.849 146.191 159.771 145.28 159.557C144.824 159.447 144.398 159.249 144.03 158.975C143.661 158.701 143.359 158.357 143.141 157.965C142.952 157.615 142.914 157.209 143.036 156.833C143.09 156.704 143.168 156.584 143.265 156.48C143.501 156.232 143.777 156.021 144.085 155.855L145.366 155.079C145.967 154.68 146.621 154.355 147.31 154.112C147.817 153.957 148.355 153.89 148.87 153.759C150.67 153.265 152.046 151.924 153.324 150.636L155.068 148.889C155.231 148.697 155.438 148.542 155.673 148.434C155.915 148.358 156.173 148.336 156.425 148.367C158.12 148.481 159.755 148.995 161.18 149.863C161.545 150.12 161.938 150.338 162.353 150.513C163.376 150.887 164.688 150.604 165.631 150.132C166.078 149.906 165.981 149.779 166.169 149.376C166.357 148.974 166.815 148.717 167.214 149.084C167.334 149.21 167.419 149.363 167.462 149.528C167.838 150.693 167.695 151.945 167.695 153.166C167.684 153.357 167.709 153.548 167.77 153.731C167.866 153.915 167.98 154.09 168.112 154.253C168.139 154.296 168.163 154.341 168.183 154.387C168.413 154.928 168.5 155.513 168.435 156.092Z" fill="#514E7F"/>
<path d="M168.435 156.092C168.465 156.455 168.358 156.817 168.135 157.115C167.959 157.281 167.742 157.402 167.503 157.468C164.018 158.639 159.985 157.178 156.508 158.332C155.794 158.569 155.117 158.911 154.399 159.137C153.543 159.378 152.66 159.525 151.768 159.574C150.539 159.684 149.302 159.754 148.069 159.786C147.132 159.848 146.191 159.771 145.28 159.557C144.824 159.447 144.398 159.249 144.03 158.975C143.661 158.701 143.359 158.357 143.141 157.965C142.952 157.615 142.914 157.209 143.036 156.833C143.09 156.704 143.168 156.584 143.265 156.48C143.468 156.878 143.615 157.408 143.742 157.598C143.915 157.881 144.15 158.125 144.431 158.316C144.713 158.506 145.034 158.638 145.374 158.703C145.883 158.732 146.393 158.671 146.877 158.523C150.035 157.789 153.392 157.778 156.425 156.667C157.467 156.282 158.459 155.77 159.553 155.538C160.647 155.305 161.808 155.368 162.936 155.28C164.718 155.146 166.443 154.641 168.198 154.377C168.425 154.922 168.506 155.51 168.435 156.092Z" fill="#464353"/>
<path d="M213.78 147.245C213.615 148.487 212.777 149.556 211.856 150.463C210.935 151.37 209.893 152.185 209.16 153.23C208.258 154.525 207.852 156.13 206.68 157.224C206.229 157.622 205.723 157.96 205.176 158.23C204.563 158.57 203.914 158.85 203.24 159.066C201.488 159.592 199.601 159.472 197.771 159.345C197.176 159.34 196.588 159.233 196.034 159.031C195.782 158.911 195.541 158.772 195.312 158.615C194.853 158.349 194.467 157.987 194.185 157.556C194.046 157.322 194.007 157.047 194.076 156.787C194.18 156.5 194.36 156.243 194.598 156.039C195.01 155.636 195.452 155.263 195.921 154.92C196.565 154.53 197.145 154.055 197.643 153.509C197.949 153.077 198.174 152.6 198.308 152.097C198.575 151.217 198.737 150.311 198.793 149.397C198.791 148.79 198.858 148.185 198.992 147.591C199.271 146.659 200.007 145.826 199.925 144.863C199.891 144.725 199.904 144.581 199.962 144.45C200.05 144.348 200.172 144.277 200.308 144.249C200.882 144.034 201.488 143.902 202.105 143.857C202.414 143.837 202.724 143.882 203.013 143.988C203.301 144.094 203.561 144.259 203.774 144.471C204.029 144.761 204.199 145.177 204.574 145.29C204.761 145.338 204.956 145.345 205.146 145.311C206.071 145.223 207.048 145.114 207.777 144.553C208.114 144.269 208.385 143.922 208.573 143.536C208.76 143.149 208.861 142.73 208.867 142.305C208.867 141.984 208.713 141.648 209.243 141.599C209.642 141.55 209.957 141.952 210.16 142.199C210.893 143.12 211.645 144.083 211.92 145.205C212.026 145.166 212.14 145.146 212.254 145.145C212.489 145.143 212.72 145.195 212.929 145.295C213.138 145.395 213.318 145.541 213.453 145.721C213.753 146.176 213.869 146.716 213.78 147.245Z" fill="#514E7F"/>
<path d="M213.78 147.245C213.615 148.487 212.777 149.556 211.856 150.463C210.935 151.37 209.893 152.185 209.16 153.23C208.258 154.525 207.852 156.13 206.679 157.224C206.229 157.622 205.723 157.96 205.176 158.23C204.562 158.57 203.914 158.85 203.24 159.066C201.488 159.592 199.601 159.472 197.771 159.345C197.176 159.34 196.588 159.233 196.034 159.031C195.782 158.911 195.54 158.771 195.312 158.615C194.853 158.349 194.467 157.987 194.185 157.556C194.537 157.397 194.921 157.31 195.312 157.302C196.124 157.344 196.718 158.064 197.496 158.286C198.605 158.6 199.71 157.866 200.834 157.616C201.567 157.454 202.338 157.496 203.063 157.263C203.668 157.044 204.227 156.726 204.714 156.324C205.381 155.876 205.975 155.339 206.476 154.729C206.893 154.12 207.239 153.47 207.51 152.792C208.104 151.492 208.802 150.237 209.6 149.038C209.718 148.848 209.861 148.672 210.025 148.515C210.202 148.364 210.401 148.258 210.6 148.124C211.352 147.591 211.664 146.712 211.927 145.851C211.998 145.589 212.098 145.335 212.224 145.092C212.458 145.09 212.69 145.142 212.899 145.242C213.107 145.342 213.287 145.488 213.423 145.668C213.747 146.134 213.874 146.696 213.78 147.245Z" fill="#464353"/>
<path d="M134.958 37.2252C135.894 37.8834 136.664 38.7267 137.213 39.6954C137.74 40.6623 140.773 48.1644 140.596 49.2548C141.585 48.3197 145.483 48.1679 146.483 47.2328C146.9 46.8411 149.152 44.8862 149.49 44.431C149.828 43.9758 152.339 43.0195 152.614 42.5396C153.64 40.814 145.336 34.2752 146.4 32.5708C146.459 32.4925 146.489 32.3984 146.487 32.3026C146.462 32.2222 146.414 32.1499 146.348 32.0944C145.667 31.4416 144.765 31.0358 143.946 30.5524C143.126 30.0689 142.337 29.3949 142.115 28.5057C141.334 28.8434 140.616 29.2987 139.991 29.8537C138.468 31.0793 136.97 32.3297 135.499 33.6047C134.924 34.1058 133.811 34.7728 133.545 35.4891C133.229 36.2584 134.409 36.8053 134.958 37.2252Z" fill="#A1616A"/>
<path d="M148.4 34.4482C147.126 35.2518 145.935 36.1663 144.844 37.1794C143.814 38.1357 142.837 39.2437 142.589 40.5811C142.483 41.1069 142.498 41.6398 142.412 42.1726C142.036 44.4839 139.908 46.1778 138.969 48.3409C138.696 49.0085 138.496 49.7001 138.371 50.4052C138.107 51.7419 137.962 53.0969 137.939 54.4562C137.916 55.7724 139.292 56.6793 139.796 57.9073C140.299 59.1354 140.435 60.3987 140.69 61.6584C141.171 64.0368 142.055 66.3305 142.946 68.6101C144.799 73.4163 150.806 86.702 152.659 91.5117C158.339 90.1743 173.457 87.1008 178.487 84.2813C180.163 83.3427 166.853 72.7528 168.646 72.0224C168.748 72.0074 168.846 71.9703 168.93 71.9139C169.015 71.8575 169.084 71.7835 169.133 71.6976C169.182 71.6117 169.209 71.5163 169.212 71.4189C169.215 71.3216 169.193 71.225 169.15 71.1367C167.357 63.7757 161.748 57.7274 159.203 50.5605C158.32 48.0727 156.734 45.9484 155.531 43.5841C154.441 41.4422 153.858 39.0744 152.554 37.0383C152.308 36.6188 151.986 36.2426 151.603 35.9267C151.277 35.6925 150.926 35.4925 150.554 35.3303C149.81 34.9916 149.118 34.7904 148.4 34.4482Z" fill="#514E7F"/>
<path d="M135.259 36.3889C140.168 36.3889 144.149 32.6525 144.149 28.0434C144.149 23.4343 140.168 19.6978 135.259 19.6978C130.349 19.6978 126.369 23.4343 126.369 28.0434C126.369 32.6525 130.349 36.3889 135.259 36.3889Z" fill="#A1616A"/>
<path d="M144.303 31.9639C144.746 31.5803 145.303 31.3318 145.899 31.2511C146.496 31.1705 147.105 31.2615 147.645 31.5122C148.246 31.8051 148.773 32.398 148.637 33.019L153.047 33.0825C153.748 33.0645 154.45 33.1249 155.137 33.2625C155.828 33.4037 156.444 33.7669 156.881 34.2894C156.933 34.3564 156.994 34.4376 157.084 34.4482C157.157 34.4492 157.229 34.4268 157.287 34.3846C157.965 34.0653 158.729 33.9425 159.482 34.0318C161.865 34.1764 164.068 35.2951 165.936 36.6925C166.273 36.9099 166.535 37.2154 166.688 37.5711C166.842 38.0404 166.658 38.6297 167.064 38.965C167.064 42.8466 168.485 46.4742 169.432 50.257C169.601 50.931 170.289 51.5274 170.766 52.0567C171.356 52.6435 171.838 53.3185 172.191 54.054C172.996 56.016 171.887 58.3238 172.669 60.2928C172.999 61.1256 173.638 61.8102 174.172 62.5336C174.876 63.3689 175.321 64.3701 175.458 65.4272C175.492 65.9 175.428 66.3764 175.458 66.8387C175.508 67.4745 175.634 68.103 175.834 68.7124C176.154 69.8511 176.49 70.9885 176.841 72.1247C177.412 73.9597 178.157 75.9393 179.908 76.9168C175.679 77.5908 171.221 78.2507 167.192 76.8709C166.63 76.6909 166.096 76.4405 165.605 76.1264C164.151 75.1524 163.448 73.4868 162.82 71.913C162.121 70.1486 161.41 68.3525 161.268 66.4752C161.269 65.8781 161.179 65.2839 161.001 64.7108C160.591 63.6875 159.497 63.0699 158.505 62.5018C157.384 61.9254 156.369 61.1844 155.497 60.3069C155.065 59.865 154.734 59.3444 154.524 58.7775C154.315 58.2106 154.232 57.6094 154.28 57.0111C154.355 56.4288 154.599 55.8677 154.622 55.282C154.644 54.6962 154.366 54.0257 153.768 53.8705C150.69 52.9953 149.22 49.5724 148.536 46.6224C148.241 45.0977 148.108 43.5491 148.141 41.9997L148.1 38.9897C147.675 38.6268 147.333 38.1866 147.095 37.6958C146.858 37.2051 146.729 36.674 146.716 36.1349C146.757 35.8204 146.751 35.5021 146.698 35.1892C146.549 34.8068 146.307 34.4624 145.991 34.1835C145.311 33.5286 144.742 32.7801 144.303 31.9639Z" fill="#464353"/>
<path d="M134.834 41.5057C134.732 42.4373 134.958 43.3935 134.736 44.3075C134.65 44.6604 134.499 45.0132 134.39 45.3414C134.057 46.6569 134.201 48.0392 134.8 49.2689C135.398 50.4866 136.114 51.6501 136.939 52.7448C137.218 53.1184 137.448 53.5225 137.623 53.9481C137.765 54.3949 137.853 54.8554 137.886 55.3208C138.104 57.1894 138.453 59.0425 138.931 60.868C139.352 62.4489 144.134 75.964 145.246 77.2167C145.448 77.4941 145.754 77.6895 146.103 77.7637C146.355 77.7726 146.605 77.7241 146.833 77.6225L149.088 76.8109C149.28 76.7558 149.458 76.6646 149.61 76.5427C149.822 76.3109 149.937 76.0151 149.934 75.7099C150.095 73.9879 145.303 60.3775 144.694 58.7507C142.852 53.8387 140.401 49.1031 139.202 44.0181C138.867 42.6066 138.691 40.4329 137.589 39.3072C137.134 38.8414 137.288 39.0391 136.743 39.2825C136.468 39.3947 136.202 39.5256 135.947 39.6742C135.627 39.8824 135.362 40.1549 135.169 40.4718C134.977 40.7886 134.862 41.1419 134.834 41.5057Z" fill="#464353"/>
<path d="M141.68 50.8252C142.285 53.8281 142.909 56.824 143.529 59.827L152.355 57.6568C152.427 56.7888 151.934 55.9842 151.603 55.1867C150.799 53.2917 150.78 51.1816 150.13 49.2337C149.637 47.7516 148.78 46.3895 148.318 44.8968C148.051 44.0288 147.916 43.1324 147.653 42.2538C147.37 41.3909 147.024 40.5478 146.615 39.7307C146.12 38.5457 145.474 37.4213 144.691 36.3819C143.563 36.7771 142.36 37.2359 141.717 38.1922C141.388 38.731 141.199 39.3359 141.168 39.9566C141.014 41.8162 141.732 43.6865 141.495 45.5355C141.252 47.2965 141.314 49.0829 141.68 50.8252Z" fill="#2EC1AC"/>
<path d="M152.501 90.7707C152.997 92.5351 152.279 94.3912 151.693 96.1379C150.81 98.769 150.208 101.476 149.896 104.219C149.858 104.917 149.708 105.606 149.453 106.262C149.174 106.851 148.701 107.349 148.377 107.91C147.49 109.385 147.513 111.185 147.705 112.871C147.832 113.983 148.024 115.091 148.261 116.185C148.55 117.522 148.907 118.92 148.49 120.225C149.189 120.081 149.663 120.931 149.618 121.598C149.573 122.265 149.344 123.009 149.686 123.585C150.55 123.881 150.558 124.996 150.531 125.861C150.546 127.36 150.748 128.852 151.133 130.307C152.441 136.212 153.829 142.1 155.298 147.972C158.474 148.896 162.184 149.86 165.214 148.579C165.778 148.342 166.342 147.965 166.469 147.393C166.502 147.085 166.461 146.774 166.349 146.483L164.913 141.578C164.564 140.392 164.214 139.168 164.398 137.95C164.537 137.043 164.958 136.066 164.485 135.265C164.323 134.99 164.067 134.774 163.88 134.513C163.128 133.479 163.522 132.096 163.583 130.843C163.606 130.562 163.586 130.279 163.522 130.003C163.419 129.681 163.276 129.372 163.094 129.082C161.907 126.92 161.337 124.505 161.44 122.074C161.485 121.764 161.439 121.448 161.308 121.16C161.217 121.042 161.135 120.917 161.064 120.786C161.008 120.56 161.036 120.322 161.143 120.112C160.712 119.805 160.323 119.45 159.985 119.054C160.194 118.932 160.37 118.767 160.501 118.572C160.632 118.377 160.714 118.157 160.74 117.928C160.767 117.699 160.738 117.467 160.655 117.25C160.573 117.033 160.439 116.837 160.263 116.675C160.417 116.646 160.558 116.578 160.673 116.478C160.787 116.378 160.87 116.25 160.912 116.109C160.953 115.967 160.952 115.818 160.909 115.676C160.865 115.535 160.781 115.408 160.666 115.31C160.481 115.19 160.237 115.137 160.105 114.957C159.903 114.696 160.068 114.332 160.233 114.053L161.109 112.568C161.763 111.463 161.91 110.098 162.613 109.039C163.62 107.497 164.278 105.779 164.928 104.078L167.458 97.5247L169.161 98.9115C169.728 99.3183 170.203 99.8269 170.559 100.408C170.801 100.982 170.955 101.585 171.014 102.2C171.638 105.757 174.021 108.841 174.905 112.346C175.1 113.125 175.232 113.944 175.709 114.611C175.88 114.816 176.033 115.033 176.168 115.26C176.292 115.607 176.357 115.971 176.359 116.337C176.438 117.053 176.68 117.746 177.07 118.367C177.459 118.988 177.986 119.523 178.615 119.936C179.453 120.476 180.494 120.846 180.949 121.7C181.04 121.965 181.166 122.217 181.325 122.452C181.731 122.911 182.607 122.964 182.78 123.539C182.877 123.86 182.697 124.245 182.889 124.527C182.998 124.657 183.142 124.759 183.306 124.82L185.753 125.967C188.49 127.251 189.888 130.201 191.907 132.35C192.604 133.05 193.221 133.816 193.748 134.637C194.621 136.101 195.023 137.94 196.496 138.871C196.892 139.064 197.253 139.315 197.564 139.616C198.026 140.187 197.857 140.989 197.898 141.708C197.94 142.428 198.526 143.286 199.255 143.067C199 143.939 199 144.859 199.255 145.731C202.457 145.577 205.51 144.416 207.924 142.435C208.638 141.85 209.326 141.101 209.333 140.212C209.344 140.059 209.308 139.905 209.228 139.771C209.083 139.597 208.893 139.462 208.675 139.379C206.386 138.215 205.698 135.515 204.54 133.324C203.529 131.39 202.033 129.725 200.782 127.929C198.06 124.065 196.203 119.389 192.087 116.838C191.181 116.277 190.129 115.779 189.674 114.851C189.422 114.332 189.392 113.739 189.193 113.203C188.993 112.667 188.516 112.144 187.907 112.144C188.245 111.368 188.178 110.422 188.2 109.583C188.223 109.21 188.177 108.836 188.065 108.478C187.908 108.093 187.705 107.726 187.46 107.384C186.386 105.677 185.849 103.72 185.911 101.738C185.941 100.718 186.133 99.6667 185.806 98.6928C185.64 98.2023 185.351 97.7541 185.152 97.2813C184.851 96.4245 184.693 95.5295 184.682 94.6276L184.456 91.2365C184.422 90.1071 184.266 88.9839 183.99 87.8842C183.238 85.2517 182.487 74.2243 179.912 72.9822C177.337 71.7401 172.912 80.2268 170.014 80.3926C168.732 80.4427 167.465 80.6723 166.255 81.0737C164.327 81.7512 162.71 83.0145 161.135 84.2495L155.805 88.4523C154.678 89.3239 153.745 90.1567 152.501 90.7707Z" fill="#464353"/>
<path d="M126.917 18.7769C128.09 17.2736 130.105 16.4761 132.09 16.4091C134.074 16.342 136.029 16.9278 137.807 17.7571C138.332 18.0372 138.893 18.2531 139.476 18.3993C140.416 18.5793 141.461 18.3393 142.31 18.7522C143.438 19.3133 143.656 20.7424 143.558 21.9281C143.461 23.1137 143.224 24.43 143.897 25.4568C144.135 25.7497 144.353 26.0574 144.547 26.3778C144.836 26.9883 144.667 27.6941 144.494 28.3398C144.054 27.987 143.806 27.4541 143.415 27.0448C143.024 26.6354 142.344 26.3602 141.859 26.6672C141.374 26.9742 141.382 27.5317 141.356 28.0328C141.329 28.5339 141.194 29.1338 140.69 29.2961C140.48 29.3411 140.26 29.3258 140.059 29.2522C139.858 29.1786 139.685 29.0501 139.562 28.8833C138.702 27.8952 139.047 26.3179 138.194 25.3227C137.709 24.7581 136.901 24.4829 136.454 23.8901C136.1 23.4243 136.01 22.8314 135.702 22.3304C135.394 21.8293 134.676 21.4623 134.198 21.8081C134.035 21.9542 133.9 22.1248 133.796 22.3127C133.498 22.713 133.066 23.0074 132.568 23.1482C132.07 23.2891 131.536 23.2682 131.052 23.089C130.682 22.876 130.283 22.7133 129.864 22.6056C129.59 22.5927 129.318 22.652 129.078 22.7767C128.839 22.9014 128.641 23.0866 128.507 23.3114C128.237 23.7603 128.107 24.2714 128.131 24.7864C128.131 25.4921 128.267 26.2437 127.838 26.8084C127.675 27.0209 127.471 27.2028 127.237 27.3447C126.609 27.7223 125.733 27.9764 125.154 27.5459C124.958 27.3743 124.812 27.1583 124.73 26.9185C124.649 26.6787 124.634 26.4233 124.688 26.1767C124.801 25.6856 124.949 25.2022 125.132 24.7299C125.462 23.636 125.03 22.4045 125.391 21.3741C125.769 20.4461 126.283 19.572 126.917 18.7769Z" fill="#464353"/>
<path d="M131.68 43.6723C131.624 43.9294 131.652 44.1967 131.763 44.438C131.874 44.6023 132.027 44.7391 132.206 44.8368C133.47 45.576 134.908 46.0134 136.394 46.1106C136.596 46.1139 136.794 46.1623 136.973 46.2518C137.326 46.4706 137.349 46.9575 137.217 47.3457C137.042 47.7119 136.951 48.1087 136.95 48.5102C137.059 49.2477 137.991 49.5688 138.777 49.6782C139.878 49.8088 141.085 49.7417 141.957 49.096C142.548 48.5902 142.998 47.9566 143.269 47.2504C145.427 42.596 146.182 37.4511 148.366 32.8107C148.532 32.5077 148.642 32.181 148.693 31.8438C148.716 31.6751 148.691 31.5036 148.619 31.3472C148.548 31.1909 148.433 31.0553 148.287 30.9546C147.881 30.7182 147.25 30.8523 146.975 30.4817C146.84 30.2947 146.855 30.0407 146.735 29.843C146.483 29.4231 145.821 29.4902 145.37 29.2467C145.017 29.0702 144.773 28.7068 144.378 28.6362C144.184 28.6259 143.99 28.6582 143.812 28.7305C143.634 28.8028 143.476 28.9131 143.352 29.0526C142.07 30.1747 141.397 31.7662 140.683 33.2695C139.592 35.5737 138.315 37.7963 136.864 39.9177C137.033 39.6706 136.052 37.8004 135.668 37.7192C134.995 37.5922 134.135 38.7002 133.77 39.1131C132.626 40.4154 131.901 41.9969 131.68 43.6723Z" fill="#2EC1AC"/>
<path opacity="0.1" d="M145.337 29.5749C145.067 29.5791 144.801 29.6403 144.56 29.7539C144.318 29.8675 144.107 30.0307 143.942 30.2312C143.54 30.7217 143.461 31.371 143.36 31.9956C143.017 33.9744 142.265 35.8711 141.146 37.5781" fill="black"/>
<path opacity="0.1" d="M147.254 30.9829C146.882 30.9907 146.517 31.0895 146.198 31.2695C145.878 31.4496 145.614 31.7047 145.431 32.0098C145.182 32.5648 145.028 33.153 144.973 33.753C144.65 35.0831 144.029 36.3332 143.149 37.4193" fill="black"/>
<path d="M236.59 99.9702V95.5875C236.589 92.3611 235.223 89.2673 232.793 86.9863C230.362 84.7052 227.066 83.4238 223.629 83.4238H39.2544C35.8176 83.4238 32.5215 84.7052 30.091 86.9863C27.6604 89.2673 26.2945 92.3611 26.2935 95.5875V103.668L236.59 99.9702Z" fill="#33323D"/>
<path d="M90.5457 78.2859C90.5457 78.2859 90.0194 108.937 95.8082 119.022C101.597 129.107 104.078 172.98 104.078 172.98C104.078 172.98 164.763 178.873 207.052 165.923C249.34 152.972 339.323 147.675 339.323 147.675L324.159 51.732C324.159 51.732 249.246 47.2222 206.631 66.3022C164.015 85.3822 90.5457 78.2859 90.5457 78.2859Z" fill="#8DD070"/>
<path opacity="0.1" d="M90.5457 78.2859C90.5457 78.2859 90.0194 108.937 95.8082 119.022C101.597 129.107 104.078 172.98 104.078 172.98C104.078 172.98 164.763 178.873 207.052 165.923C249.34 152.972 339.323 147.675 339.323 147.675L324.159 51.732C324.159 51.732 249.246 47.2222 206.631 66.3022C164.015 85.3822 90.5457 78.2859 90.5457 78.2859Z" fill="black"/>
<path d="M103.977 89.4827C103.977 89.4827 102.078 114.773 106.841 122.854C111.604 130.935 111.825 167.01 111.825 167.01C111.825 167.01 166.44 169.388 205.289 156.974C244.138 144.56 325.776 136.507 325.776 136.507L316.498 58.045C316.498 58.045 248.949 57.3921 209.525 74.8666C170.101 92.341 103.977 89.4827 103.977 89.4827Z" fill="#8DD070"/>
<path opacity="0.1" d="M208.926 142.608C216.696 141.699 221.313 128.28 219.237 112.634C217.161 96.9885 209.179 85.0419 201.408 85.9505C193.637 86.8591 189.021 100.279 191.097 115.924C193.173 131.57 201.155 143.517 208.926 142.608Z" fill="black"/>
<path opacity="0.2" d="M283.088 4.99359C283.088 4.99359 210.311 22.2845 175.991 52.7201C141.672 83.1556 69.4238 97.5671 69.4238 97.5671C69.4238 97.5671 78.9416 126.888 87.7451 134.82C96.5487 142.753 113.246 183.799 113.246 183.799C113.246 183.799 172.928 171.922 208.939 147.404C244.95 122.886 328.877 91.9211 328.877 91.9211L283.088 4.99359Z" fill="black"/>
<path d="M68.3301 93.1773C68.3301 93.1773 77.8441 122.501 86.6401 130.434C95.4361 138.367 112.141 179.41 112.141 179.41C112.141 179.41 171.83 167.535 207.845 143.018C243.86 118.5 327.779 87.5454 327.779 87.5454L281.991 0.6073C281.991 0.6073 209.217 17.8982 174.897 48.3338C140.578 78.7694 68.3301 93.1773 68.3301 93.1773Z" fill="#8DD070"/>
<path opacity="0.1" d="M68.3301 93.1773C68.3301 93.1773 77.8441 122.501 86.6401 130.434C95.4361 138.367 112.141 179.41 112.141 179.41C112.141 179.41 171.83 167.535 207.845 143.018C243.86 118.5 327.779 87.5454 327.779 87.5454L281.991 0.6073C281.991 0.6073 209.217 17.8982 174.897 48.3338C140.578 78.7694 68.3301 93.1773 68.3301 93.1773Z" fill="black"/>
<path d="M84.7607 99.9666C84.7607 99.9666 91.2224 124.587 98.3984 130.903C105.574 137.22 117.569 171.484 117.569 171.484C117.569 171.484 170.323 158.011 203.24 135.004C236.158 111.996 311.232 80.8478 311.232 80.8478L276.759 8.81873C276.759 8.81873 212.258 27.6517 180.446 55.6419C148.633 83.632 84.7607 99.9666 84.7607 99.9666Z" fill="#8DD070"/>
<path opacity="0.1" d="M202.023 120.295C209.122 117.192 209.129 103.09 202.039 88.797C194.949 74.5042 183.447 65.4334 176.348 68.5366C169.249 71.6399 169.242 85.7421 176.332 100.035C183.422 114.328 194.924 123.398 202.023 120.295Z" fill="black"/>
<path opacity="0.1" d="M241.567 104.272V226.014C241.567 227.397 241.277 228.766 240.713 230.043C240.149 231.32 239.323 232.481 238.281 233.458C237.24 234.436 236.003 235.211 234.642 235.74C233.281 236.269 231.823 236.541 230.35 236.54H37.514C34.5408 236.539 31.6896 235.43 29.5876 233.456C27.4855 231.482 26.3047 228.805 26.3047 226.014V91.9987C31.8304 93.9254 31.8304 93.9254 37.514 93.7631H230.35C233.321 93.7631 236.171 94.8695 238.274 96.8397C240.377 98.8098 241.561 101.483 241.567 104.272Z" fill="black"/>
<path d="M241.567 105.821V227.563C241.566 230.355 240.384 233.033 238.28 235.006C236.177 236.98 233.324 238.089 230.35 238.089H37.514C34.5408 238.088 31.6896 236.979 29.5876 235.005C27.4855 233.031 26.3047 230.354 26.3047 227.563V93.5443C31.8304 95.4674 31.8304 95.4674 37.514 95.3086H230.35C233.322 95.3086 236.172 96.4156 238.275 98.3865C240.378 100.357 241.562 103.031 241.567 105.821Z" fill="#504F60"/>
<path opacity="0.1" d="M241.018 150.83V189.763H200.797C195.345 189.694 190.142 187.613 186.313 183.97C182.484 180.327 180.337 175.414 180.337 170.297C180.337 165.179 182.484 160.267 186.313 156.624C190.142 152.98 195.345 150.899 200.797 150.83H241.018Z" fill="black"/>
<path d="M241.567 149.793V188.733H201.345C195.894 188.664 190.691 186.582 186.862 182.939C183.033 179.296 180.886 174.384 180.886 169.266C180.886 164.148 183.033 159.236 186.862 155.593C190.691 151.95 195.894 149.869 201.345 149.8L241.567 149.793Z" fill="#33323D"/>
<path opacity="0.1" d="M203.274 177.889C207.739 177.889 211.359 174.49 211.359 170.298C211.359 166.106 207.739 162.708 203.274 162.708C198.808 162.708 195.188 166.106 195.188 170.298C195.188 174.49 198.808 177.889 203.274 177.889Z" fill="black"/>
<path d="M203.823 176.858C208.288 176.858 211.908 173.46 211.908 169.268C211.908 165.076 208.288 161.678 203.823 161.678C199.357 161.678 195.737 165.076 195.737 169.268C195.737 173.46 199.357 176.858 203.823 176.858Z" fill="#2EC1AC"/>
<path d="M311.382 149.458C311.702 152.708 309.081 155.862 309.845 159.045C310.01 159.726 310.322 160.369 310.435 161.057C310.75 162.948 309.551 164.737 308.405 166.318L298.556 179.883C298.162 180.479 297.69 181.027 297.15 181.513C295.271 183.087 292.444 182.924 289.971 183.394C288.232 183.725 286.59 184.406 285.159 185.391C285.099 185.439 285.061 185.507 285.053 185.58C285.045 185.654 285.067 185.727 285.114 185.786C285.523 186.309 286.065 186.727 286.69 187.002C287.315 187.278 288.003 187.402 288.693 187.364C288.952 187.685 288.693 188.154 288.317 188.383C287.787 188.736 287.061 188.821 286.956 189.661C286.919 189.954 286.982 190.251 287.137 190.508C287.533 191.078 288.151 191.482 288.858 191.633C292.268 192.611 295.951 190.892 298.504 188.553C301.056 186.213 302.887 183.26 305.39 180.878C306.777 179.561 308.352 178.432 309.781 177.155C312.63 174.607 314.844 171.509 316.983 168.407C317.626 167.472 318.272 166.512 318.543 165.429C318.813 164.345 318.686 163.252 318.99 162.203C319.389 160.827 320.46 159.733 321.351 158.579C323.099 156.321 324.264 153.558 324.035 150.777C323.805 147.997 321.967 145.248 319.171 144.302C318.304 143.975 317.348 143.921 316.445 144.147C315.299 144.479 314.453 145.368 313.671 146.218L311.792 148.247C311.323 148.692 310.953 149.22 310.702 149.8C310.581 150.091 310.553 150.409 310.619 150.715C310.686 151.021 310.845 151.302 311.078 151.525" fill="#FBBEBE"/>
<path opacity="0.05" d="M311.382 149.458C311.702 152.708 309.081 155.862 309.845 159.045C310.01 159.726 310.322 160.369 310.435 161.057C310.75 162.948 309.551 164.737 308.405 166.318L298.556 179.883C298.162 180.479 297.69 181.027 297.15 181.513C295.271 183.087 292.444 182.924 289.971 183.394C288.232 183.725 286.59 184.406 285.159 185.391C285.099 185.439 285.061 185.507 285.053 185.58C285.045 185.654 285.067 185.727 285.114 185.786C285.523 186.309 286.065 186.727 286.69 187.002C287.315 187.278 288.003 187.402 288.693 187.364C288.952 187.685 288.693 188.154 288.317 188.383C287.787 188.736 287.061 188.821 286.956 189.661C286.919 189.954 286.982 190.251 287.137 190.508C287.533 191.078 288.151 191.482 288.858 191.633C292.268 192.611 295.951 190.892 298.504 188.553C301.056 186.213 302.887 183.26 305.39 180.878C306.777 179.561 308.352 178.432 309.781 177.155C312.63 174.607 314.844 171.509 316.983 168.407C317.626 167.472 318.272 166.512 318.543 165.429C318.813 164.345 318.686 163.252 318.99 162.203C319.389 160.827 320.46 159.733 321.351 158.579C323.099 156.321 324.264 153.558 324.035 150.777C323.805 147.997 321.967 145.248 319.171 144.302C318.304 143.975 317.348 143.921 316.445 144.147C315.299 144.479 314.453 145.368 313.671 146.218L311.792 148.247C311.323 148.692 310.953 149.22 310.702 149.8C310.581 150.091 310.553 150.409 310.619 150.715C310.686 151.021 310.845 151.302 311.078 151.525" fill="black"/>
<path d="M318.836 233.125C316.686 234.356 314.006 234.43 311.506 234.144C311.104 234.098 310.627 234.07 310.378 234.363C310.003 234.787 310.446 235.422 310.905 235.75C312.379 236.789 314.111 237.458 315.938 237.694C317.569 237.911 319.215 238.014 320.862 238.001C325.373 238.075 329.884 238.146 334.323 237.539C334.586 237.52 334.842 237.451 335.075 237.334C335.361 237.146 335.56 236.862 335.631 236.54C335.936 235.454 335.349 234.289 334.462 233.534C333.575 232.779 332.436 232.359 331.324 231.953L327.414 230.524C326.497 230.189 325.027 229.299 324.031 229.37C322.159 229.497 320.389 232.271 318.836 233.125Z" fill="#3F3D56"/>
<path opacity="0.05" d="M318.836 233.125C316.686 234.356 314.006 234.43 311.506 234.144C311.104 234.098 310.627 234.07 310.378 234.363C310.003 234.787 310.446 235.422 310.905 235.75C312.379 236.789 314.111 237.458 315.938 237.694C317.569 237.911 319.215 238.014 320.862 238.001C325.373 238.075 329.884 238.146 334.323 237.539C334.586 237.52 334.842 237.451 335.075 237.334C335.361 237.146 335.56 236.862 335.631 236.54C335.936 235.454 335.349 234.289 334.462 233.534C333.575 232.779 332.436 232.359 331.324 231.953L327.414 230.524C326.497 230.189 325.027 229.299 324.031 229.37C322.159 229.497 320.389 232.271 318.836 233.125Z" fill="black"/>
<path d="M321.577 184.406C319.949 186.439 318.265 188.786 318.667 191.302C318.885 192.657 319.693 193.853 320.287 195.106C321.092 196.806 321.513 198.634 321.926 200.455C322.535 203.116 323.148 205.784 323.52 208.487C323.945 211.539 321.949 220.371 321.765 223.445C321.719 224.186 321.625 224.987 321.077 225.52C320.862 225.732 320.577 225.901 320.479 226.176C320.422 226.441 320.468 226.717 320.611 226.953C321.528 228.893 323.403 230.34 325.497 231.166C327.591 231.992 332.639 233.417 334.921 233.491C335.222 233.522 335.526 233.485 335.808 233.382C336.112 233.208 336.351 232.951 336.492 232.644C338.127 229.709 336.556 219.27 336.579 215.957C336.601 213.194 337.297 210.449 337.169 207.689C337.064 205.473 336.417 203.306 336.203 201.097C335.827 197.477 336.534 193.839 337.244 190.261C337.785 187.515 338.33 184.77 339.026 182.06C339.451 180.405 339.943 178.736 340.905 177.299C341.657 176.16 342.713 175.207 343.589 174.124C346.02 171.131 347.1 167.362 346.596 163.629C346.544 163.276 340.958 164.959 340.466 165.16C338.456 165.959 336.608 167.075 335 168.46C333.707 169.617 332.688 171.163 331.557 172.458C329.955 174.291 328.374 176.136 326.813 177.995C325.031 180.119 323.286 182.256 321.577 184.406Z" fill="#464353"/>
<path opacity="0.05" d="M321.577 184.283C319.949 186.315 318.265 188.666 318.667 191.178C318.885 192.537 319.693 193.733 320.287 194.986C321.092 196.683 321.513 198.514 321.926 200.332C322.535 202.996 323.148 205.664 323.52 208.363C323.945 211.419 321.949 220.248 321.765 223.322C321.719 224.063 321.625 224.867 321.077 225.4C320.862 225.608 320.577 225.778 320.479 226.053C320.421 226.318 320.468 226.594 320.611 226.829C321.528 228.773 323.403 230.217 325.497 231.064C327.591 231.911 332.639 232.648 334.921 232.719C335.222 232.75 335.526 232.712 335.808 232.609C336.112 232.438 336.351 232.181 336.492 231.875C338.127 228.939 336.556 219.172 336.579 215.855C336.601 213.088 337.297 210.346 337.169 207.583C337.064 205.367 336.417 203.201 336.203 200.995C335.827 197.371 336.534 193.733 337.244 190.155C337.785 187.413 338.33 184.667 339.026 181.954C339.451 180.299 339.943 178.63 340.905 177.194C341.657 176.054 342.713 175.101 343.589 174.018C346.021 171.026 347.101 167.256 346.596 163.523C346.544 163.17 340.958 164.853 340.466 165.055C338.457 165.856 336.609 166.973 335 168.358C333.707 169.511 332.688 171.057 331.557 172.352C329.955 174.185 328.374 176.031 326.813 177.892C325.031 180 323.286 182.13 321.577 184.283Z" fill="black"/>
<path d="M303.466 139.641C308.504 139.641 312.589 135.806 312.589 131.076C312.589 126.346 308.504 122.512 303.466 122.512C298.427 122.512 294.343 126.346 294.343 131.076C294.343 135.806 298.427 139.641 303.466 139.641Z" fill="#FBBEBE"/>
<path d="M311.683 130.716C312.526 131.978 313.631 133.068 314.932 133.921C316.234 134.773 317.705 135.371 319.257 135.678L318.57 138.024C317.382 142.054 316.047 146.317 312.732 149.112C313.108 147.746 312.627 146.289 311.807 145.103C310.988 143.917 309.837 142.986 308.71 142.065L303.458 137.795C303.307 137.679 303.179 137.538 303.083 137.379C302.953 137.077 302.953 136.741 303.083 136.44C303.752 134.485 305.661 133.264 307.217 131.944C307.998 131.262 308.696 130.5 309.296 129.672C310.345 128.267 310.995 129.679 311.683 130.716Z" fill="#FBBEBE"/>
<path d="M291.449 122.466L291.242 120.857C292.681 121.21 294.05 120.059 294.971 118.87C295.892 117.681 296.745 116.28 298.147 115.783C299.85 115.183 301.654 116.135 303.282 116.94C305.104 117.889 307.104 118.5 309.172 118.74C309.502 118.75 309.829 118.8 310.146 118.888C311.206 119.241 311.709 120.49 311.864 121.623C312.018 122.755 311.976 123.959 312.499 124.968C312.875 125.734 313.574 126.302 314.002 127.057C315.13 129.082 314.04 131.853 315.217 133.839L312.292 131.323C312.025 131.094 311.649 130.854 311.352 131.048C311.119 131.203 311.101 131.538 311.007 131.807C310.725 132.59 309.68 132.823 308.924 132.512C308.169 132.202 307.616 131.528 307.045 130.914C305.751 129.481 304.21 128.221 302.406 127.611C301.615 127.333 300.77 127.217 299.928 127.269C299.085 127.322 298.264 127.542 297.519 127.914C296.155 128.638 295.155 130.325 293.482 130.385C291.189 130.466 290.234 126.457 289.174 124.873C289.562 124.599 289.835 124.205 289.945 123.761C290.055 123.318 289.995 122.851 289.776 122.445C289.93 122.385 291.415 122.219 291.449 122.466Z" fill="#464353"/>
<path d="M178.607 72.3964C177.874 73.0084 177.197 73.6765 176.581 74.3937C175.962 75.1208 175.632 76.0281 175.649 76.9591C175.652 77.2291 175.744 77.4915 175.912 77.7107C175.998 77.8156 176.117 77.8927 176.251 77.9313C176.386 77.9699 176.53 77.968 176.664 77.926C176.815 77.8537 176.944 77.7469 177.04 77.6154C177.437 77.1673 177.859 76.7386 178.303 76.331C178.465 76.1792 178.679 76.0204 178.897 76.0769C178.995 76.1095 179.082 76.164 179.152 76.2357C179.405 76.4409 179.589 76.7106 179.682 77.012C179.814 77.5519 179.479 78.0918 179.1 78.5153C178.72 78.9387 178.273 79.3445 178.119 79.8774C178.06 80.0181 178.06 80.1742 178.119 80.3149C178.191 80.4167 178.293 80.4974 178.412 80.5478C178.95 80.8261 179.547 80.9899 180.16 81.0277C180.773 81.0655 181.388 80.9764 181.96 80.7666C182.712 80.4808 183.381 79.9903 184.156 79.7362C184.491 79.6501 184.816 79.5318 185.125 79.3833C185.347 79.245 185.537 79.0667 185.685 78.859C185.833 78.6513 185.935 78.4181 185.986 78.173C186.084 77.6832 186.103 77.1824 186.043 76.6874C185.949 74.7704 185.512 72.882 184.75 71.1013C184.705 70.9865 184.63 70.8844 184.532 70.8049C184.418 70.7402 184.288 70.7072 184.156 70.7097C183.193 70.6144 181.615 70.1521 180.686 70.4873C180.361 70.6545 180.081 70.8885 179.867 71.1719C179.694 71.3519 178.607 72.16 178.607 72.3964Z" fill="#A1616A"/>
<path d="M178.303 71.5989C178.303 70.7379 177.176 68.6594 178.969 68.5218C178.969 67.6008 177.582 67.0292 177.841 66.0517C177.924 65.727 178.217 65.4624 178.251 65.1307C178.363 64.1885 176.552 63.6768 176.852 62.7735C176.965 62.4206 177.364 62.2159 177.45 61.8666C177.653 61.0514 176.1 60.688 176.07 59.8517C176.07 59.5694 176.24 59.3047 176.225 59.0224C176.225 58.6695 175.898 58.4013 175.717 58.0943C175.247 57.3074 175.477 56.09 174.619 55.6842C175.187 55.7301 175.371 54.9396 175.138 54.4562C174.905 53.9727 174.428 53.5528 174.424 53.0164C174.452 52.8221 174.452 52.625 174.424 52.4307C174.266 51.9155 173.368 51.8731 173.217 51.372C173.198 51.1797 173.192 50.9864 173.199 50.7933C173.138 50.3946 172.702 50.1405 172.293 50.0276C171.867 49.9597 171.457 49.8224 171.082 49.6218C170.819 49.4348 170.515 49.1242 170.233 49.2689C170.127 49.3289 170.075 49.4418 169.996 49.5265C169.658 49.897 169.011 49.7347 168.586 49.463C167.331 48.662 166.707 47.2257 166.44 45.8248C166.173 44.4239 166.181 42.9771 165.846 41.5903C165.744 41.1581 165.608 40.7335 165.44 40.32C165.297 39.9671 164.839 39.4131 164.809 39.0567C164.741 38.2451 166.53 38.7991 167.211 38.8802C167.871 38.9408 168.524 39.0589 169.161 39.2331C169.842 39.4743 170.508 39.7488 171.157 40.0553C173.871 41.181 177.149 41.3186 179.329 43.21C180.047 43.8311 180.653 44.6462 181.585 44.9285C182.012 45.0055 182.434 45.108 182.848 45.2355C183.882 45.6907 184.043 46.9787 184.607 47.9103C184.784 48.1563 184.939 48.4161 185.069 48.6867C185.178 49.0058 185.229 49.3398 185.22 49.6747L185.299 52.1201C185.427 56.217 185.554 60.3245 185.088 64.3967C184.938 65.7412 184.712 67.1244 185.137 68.416C185.25 68.7688 185.408 69.1005 185.513 69.4569C185.606 69.8748 185.654 70.3004 185.656 70.7273L185.716 72.3117C185.737 72.4349 185.707 72.561 185.633 72.6646C185.57 72.7125 185.497 72.7465 185.418 72.7642C185.34 72.782 185.258 72.7829 185.178 72.7669C182.829 72.5693 180.453 71.3272 178.236 72.0788" fill="#464353"/>
<path d="M285.517 193.341C300.871 193.341 313.318 191.652 313.318 189.569C313.318 187.486 300.871 185.797 285.517 185.797C270.162 185.797 257.715 187.486 257.715 189.569C257.715 191.652 270.162 193.341 285.517 193.341Z" fill="#504F60"/>
<path d="M309.435 189.752C308.947 187.787 308.642 186.061 308.642 186.061C308.642 186.061 308.755 183.923 307.733 182.317V181.781V177.829C308.024 177.111 308.38 176.418 308.796 175.757C309.548 174.515 308.796 169.963 308.796 169.963C308.796 169.963 305.988 163.544 306.669 159.472C307.349 155.4 300.902 141.391 300.902 141.391C300.942 140.04 301.145 138.697 301.508 137.389C301.576 137.114 301.604 136.831 301.59 136.549C301.59 136.514 301.59 136.482 301.59 136.447C301.59 136.412 301.59 136.468 301.59 136.479C301.493 133.793 299.23 128.761 299.23 128.761L299.534 119.17C299.534 119.17 300.978 113.524 298.625 105.92C297.801 103.27 297.275 101.149 296.94 99.5114C296.903 99.3279 296.865 99.1585 296.835 98.9786C301.681 98.2728 305.383 97.7082 305.383 97.7082C305.383 97.7082 302.571 86.6667 300.673 84.733C298.775 82.7992 297.256 76.7262 297.256 76.7262C297.256 76.7262 296.268 68.9312 297.865 66.6516C299.463 64.372 299.688 60.441 299.688 60.441C299.688 60.441 303.331 57.9708 303.789 56.8522C304.248 55.7336 305.004 53.2635 305.004 51.9543C305.004 50.6451 304.549 49.4842 304.699 48.7784C304.849 48.0727 303.635 45.4649 304.244 44.2228C304.402 43.8412 304.483 43.4358 304.485 43.0265C304.486 43.0148 304.486 43.003 304.485 42.9913C304.49 41.9043 304.383 40.8194 304.165 39.7519C303.112 38.9166 301.882 38.2997 300.557 37.9416L300.478 37.6452L300.271 36.8689C300.156 36.7972 300.036 36.7313 299.914 36.6712V36.3889L299.88 35.2668L300.451 32.7473C301.579 28.3645 295.343 27.7117 295.343 27.7117C294.965 27.0394 294.336 26.5218 293.576 26.2579C292.324 25.845 293.369 32.8496 293.952 33.3154C294.392 33.6683 295.753 35.849 296.41 36.9288L296.516 37.1053C296.413 37.1922 296.317 37.2866 296.23 37.3876L296.467 38.9085L296.504 39.1414C296.091 39.6232 295.756 40.1594 295.508 40.7328C295.508 40.7328 296.636 41.9044 296.422 43.203C296.207 44.5016 296.771 46.1495 296.798 46.2377C296.73 46.1636 295.929 45.352 295.129 45.5496C294.328 45.7472 292.091 46.3789 292.091 46.3789C292.091 46.3789 290.422 46.6541 290.588 46.9999C290.753 47.3457 289.46 48.8631 289.46 48.8631L284.972 44.8686C284.927 44.7486 284.878 44.6286 284.84 44.5157C284.657 43.9397 284.531 43.3491 284.464 42.7513C284.954 42.6422 285.433 42.4995 285.9 42.3243C286.372 42.1723 286.797 41.9157 287.141 41.5762C287.596 41.0716 287.682 40.387 287.866 39.7589C288.22 38.5309 288.994 37.4405 289.532 36.2725C290.442 34.2988 290.735 32.1227 290.377 29.9984C290.308 29.3437 290.072 28.7143 289.689 28.1634C288.956 27.2177 287.626 26.8331 286.66 26.0779C285.694 25.3227 285.07 24.1688 283.942 23.6078C282.923 23.0961 281.687 23.1561 280.536 23.3325C278.29 23.6803 276.132 24.4174 274.172 25.5062C273.518 25.8591 272.796 26.2932 272.045 26.1626C271.398 26.0532 270.917 25.5698 270.511 25.104C270.516 25.0847 270.522 25.0658 270.53 25.0475C270.512 25.0303 270.495 25.0114 270.481 24.991C270.005 25.9821 269.767 27.0589 269.782 28.1458C269.782 28.3151 269.782 28.4986 269.804 28.6504V28.8268C269.804 28.8762 269.804 28.9256 269.804 28.9715C269.804 29.0467 269.793 29.1215 269.771 29.1938C269.676 29.4097 269.532 29.6035 269.349 29.7619C269.212 29.9091 269.086 30.066 268.974 30.2313C268.974 30.1748 269.011 30.1183 269.034 30.0583C268.747 30.4513 268.585 30.9127 268.568 31.3887C268.547 31.7352 268.668 32.0761 268.906 32.3415C269.131 32.5466 269.376 32.731 269.639 32.8919C269.55 33.3578 269.504 33.8301 269.504 34.3034C269.512 35.7067 269.906 37.0841 270.648 38.3025C271.389 39.5209 272.453 40.5391 273.736 41.2586C273.789 41.3751 273.838 41.4951 273.887 41.6115C274.462 43.023 274.894 44.6815 274.702 46.1989C274.702 46.3083 274.668 46.4212 274.65 46.5306C274.631 46.64 274.537 46.647 274.488 46.707C274.488 46.707 267.072 46.7776 265.327 45.2955C263.583 43.8134 260.922 48.9196 260.922 48.9196C260.922 48.9196 258.264 49.403 257.73 48.9196C257.197 48.4361 254.088 48.8525 254.088 48.8525C252.814 47.7892 251.157 47.2214 249.453 47.2646C248.421 46.5281 247.282 45.934 246.07 45.5002L245.987 45.472C245.453 45.289 244.881 45.2215 244.315 45.2744C244.315 45.2744 240.668 42.4514 239.605 40.9269C238.541 39.4025 233.477 33.7741 233.455 33.7494V33.4777L233.399 32.659C233.248 32.6812 233.096 32.693 232.944 32.6943C232.917 32.6132 232.88 32.5179 232.842 32.4085C232.55 31.61 232.191 30.8347 231.767 30.0901C231.767 30.0901 231.767 29.0562 232.087 28.795C232.406 28.5339 231.955 24.7405 231.955 24.7405C231.955 24.7405 228.67 17.5312 225.726 22.9126C225.726 22.9126 220.163 26.3955 224.832 30.4536C224.832 30.4536 226.711 31.3005 226.959 31.9709C227.132 32.405 227.764 33.6224 228.189 34.4411L228.38 34.7939L228.328 34.8363L228.395 35.5138L228.425 35.7749C227.546 36.2443 226.948 36.7101 227.095 37.0594C227.354 37.6572 227.532 38.2832 227.625 38.9226C227.625 38.9226 234.083 46.5165 234.917 49.7594C234.917 49.7594 252.235 59.4212 257.93 60.1093L256.922 64.926C256.776 66.2331 256.7 67.5463 256.697 68.8606C256.772 69.8945 256.013 74.5878 256.013 74.5878C256.013 74.5878 255.024 81.49 254.189 82.4569C253.355 83.4238 253.505 87.563 253.505 87.563C253.308 89.5446 252.931 91.5067 252.378 93.4278C251.543 96.0497 252.148 99.2962 252.148 99.2962C252.148 99.2962 249.265 105.507 256.174 101.297C256.174 101.297 259.557 101.099 263.474 100.972C263.474 101.092 263.474 101.216 263.474 101.325C263.474 101.798 263.474 102.31 263.448 102.846C263.395 106.403 263.373 111.315 263.546 115.013C263.85 121.57 265.978 134.545 265.978 134.545V141.077C265.84 141.689 265.772 142.314 265.775 142.94C265.73 145.238 266.382 147.501 267.654 149.465L268.188 153.812C268.188 153.812 269.436 156.677 269.458 158.399C269.454 158.538 269.436 158.676 269.406 158.812C269.357 159.031 269.337 159.255 269.346 159.479C269.274 161.455 270.541 166.184 270.541 166.184C270.541 166.184 270.616 170.944 271.376 171.223C272.026 171.459 270.507 173.965 270.056 174.685C270.044 174.641 270.035 174.596 270.03 174.551L269.936 174.692C269.779 175.077 269.699 175.486 269.699 175.898C269.656 176.224 269.713 176.553 269.862 176.849C270.011 177.146 270.246 177.396 270.541 177.571C271.985 178.4 272.759 179.088 271.533 179.364C271.083 179.429 270.636 179.518 270.195 179.628C270.195 179.575 270.15 179.519 270.131 179.47C269.958 179.533 269.814 179.651 269.723 179.802C269.632 179.954 269.6 180.131 269.631 180.302C269.643 180.862 269.796 181.411 270.079 181.904C271.293 184.459 272.135 185.433 272.135 185.433L272.718 185.373C272.632 185.582 272.518 185.78 272.379 185.963C272.157 186.258 271.864 186.5 271.522 186.668C271.204 186.847 270.849 186.961 270.481 187.004C270.069 187.016 269.665 187.11 269.295 187.279C268.924 187.448 268.596 187.688 268.331 187.984C267.579 188.906 267.098 190.158 268.594 191.259L274.026 193.024C274.026 193.024 283.371 194.163 282.874 192.194C282.378 190.225 282.077 188.503 282.077 188.503C282.118 187.301 281.86 186.106 281.326 185.013C281.228 184.835 281.117 184.663 280.995 184.498L281.326 184.466C281.326 184.466 282.01 180.115 282.919 179.29C283.13 179.099 283.179 178.937 283.13 178.838C283.224 178.602 282.983 178.464 282.679 178.383L282.611 178.556C282.314 178.495 282.01 178.463 281.705 178.46C281.705 178.46 281.401 176.184 282.389 175.355C282.469 175.261 282.527 175.152 282.56 175.035C282.593 174.918 282.6 174.797 282.581 174.678C282.589 174.365 282.553 174.053 282.476 173.749C282.466 173.769 282.455 173.788 282.442 173.806C281.946 171.738 280.262 168.453 280.262 168.453C280.262 168.453 280.187 166.385 280.796 165.556C281.405 164.726 280.717 154.306 280.717 154.306C280.717 154.306 280.946 149.27 280.262 146.924C279.578 144.577 281.096 141.814 281.096 141.814C281.096 141.814 281.096 141.761 281.096 141.666V141.631L281.01 140.837C281.008 140.853 281.008 140.87 281.01 140.886C280.856 139.552 280.566 137.135 280.352 136.02C280.048 134.432 280.431 126.845 280.431 126.845L281.796 123.599L284.228 129.192L286.81 136.645C286.81 136.645 288.088 138.218 288.118 139.82C288.118 139.898 288.118 139.976 288.118 140.053C288.097 140.218 288.087 140.385 288.088 140.551C288.042 141.493 288.317 142.423 288.874 143.208C288.874 143.208 289.558 146.737 290.622 147.623C291.685 148.508 291.685 150.244 291.685 150.244C291.685 150.244 292.975 155.354 293.565 156.243C294.076 156.998 294.102 159.066 294.099 159.712C294.099 159.829 294.099 159.896 294.099 159.896C294.099 159.896 294.279 161.723 294.272 163.255C294.272 163.446 294.272 163.629 294.272 163.802C294.273 163.789 294.273 163.776 294.272 163.763C294.271 164.182 294.218 164.598 294.114 165.005L294.091 165.076C294.091 164.988 294.091 164.903 294.117 164.818C293.853 165.858 293.727 166.925 293.742 167.994C293.708 169.829 294.005 172.003 295.189 173.287C297.241 175.496 298.531 175.221 298.531 175.221C298.531 175.221 297.546 177.98 296.328 178.534C296.282 178.555 296.239 178.581 296.2 178.612C296.2 178.556 296.177 178.503 296.17 178.45C296.034 178.587 295.931 178.75 295.866 178.928C295.801 179.105 295.777 179.293 295.794 179.48C295.708 180.694 296.523 182.656 297.298 183.57C297.585 183.834 297.938 184.028 298.324 184.135C298.263 184.175 298.199 184.212 298.132 184.244C297.997 184.314 297.858 184.376 297.715 184.431C297.517 184.51 297.308 184.561 297.095 184.583C296.682 184.593 296.277 184.686 295.907 184.855C295.536 185.024 295.208 185.266 294.944 185.564C294.193 186.481 293.712 187.734 295.208 188.835L300.639 190.599C300.639 190.599 309.924 191.718 309.435 189.752Z" fill="url(#paint0_linear_657_2225)"/>
<path d="M273.759 193.013L268.496 191.249C267.045 190.148 267.507 188.895 268.24 187.974C268.493 187.68 268.809 187.441 269.168 187.271C269.528 187.102 269.921 187.007 270.323 186.993C270.679 186.95 271.022 186.836 271.326 186.658C271.66 186.488 271.946 186.246 272.161 185.952C272.545 185.38 272.752 184.719 272.759 184.043C272.759 184.043 278.532 182.455 280.111 184.043C280.393 184.33 280.629 184.655 280.81 185.006C281.335 186.102 281.592 187.295 281.562 188.496C281.562 188.496 281.855 190.218 282.333 192.187C282.81 194.156 273.759 193.013 273.759 193.013Z" fill="#2D293D"/>
<path d="M299.485 190.578L294.223 188.814C292.772 187.713 293.234 186.46 293.967 185.543C294.217 185.248 294.533 185.007 294.892 184.838C295.25 184.669 295.644 184.574 296.046 184.562C296.254 184.542 296.457 184.49 296.647 184.41C296.786 184.355 296.922 184.292 297.053 184.223C298.523 183.464 298.485 181.601 298.485 181.601C298.485 181.601 304.255 180.013 305.838 181.601C306.05 181.816 306.235 182.053 306.39 182.307C307.379 183.912 307.27 186.054 307.27 186.054C307.27 186.054 307.563 187.78 308.022 189.745C308.48 191.711 299.485 190.578 299.485 190.578Z" fill="#2D293D"/>
<path opacity="0.1" d="M280.115 184.039C280.397 184.327 280.633 184.651 280.815 185.003L272.169 185.945C272.553 185.373 272.76 184.712 272.767 184.036C272.767 184.036 278.537 182.451 280.115 184.039Z" fill="black"/>
<path opacity="0.1" d="M306.398 182.314V183.835C305.052 185.913 298.546 185.458 296.655 184.417C296.794 184.362 296.929 184.299 297.061 184.23C298.531 183.471 298.493 181.608 298.493 181.608C298.493 181.608 304.263 180.02 305.846 181.608C306.057 181.823 306.243 182.06 306.398 182.314Z" fill="black"/>
<path d="M307.424 175.757C307.022 176.42 306.679 177.113 306.398 177.829V183.281C304.925 185.557 297.283 184.798 296.249 183.556C295.215 182.314 294.136 179.081 295.298 178.52C296.459 177.959 297.429 175.207 297.429 175.207C297.429 175.207 296.177 175.482 294.193 173.273C292.208 171.064 292.798 166.166 293.166 164.995C293.535 163.823 293.166 159.888 293.166 159.888C293.166 159.888 293.242 157.125 292.655 156.229C292.069 155.333 290.817 150.23 290.817 150.23C290.817 150.23 290.817 148.505 289.787 147.608C288.757 146.712 288.096 143.19 288.096 143.19C287.493 142.31 287.234 141.262 287.363 140.223C287.581 138.497 286.111 136.634 286.111 136.634L283.611 129.178L281.258 123.588L279.935 126.831C279.935 126.831 279.559 134.421 279.863 136.006C280.168 137.59 280.615 141.804 280.615 141.804C280.615 141.804 279.145 144.563 279.807 146.91C280.469 149.256 280.228 154.299 280.228 154.299C280.228 154.299 280.89 164.716 280.299 165.545C279.709 166.374 279.784 168.446 279.784 168.446C279.784 168.446 282.792 174.515 281.844 175.344C280.897 176.174 281.183 178.45 281.183 178.45C281.183 178.45 283.239 178.45 282.359 179.279C281.48 180.108 280.814 184.456 280.814 184.456L271.924 185.433C271.924 185.433 271.112 184.47 269.936 181.904C268.759 179.339 270.154 179.628 271.338 179.35C272.522 179.071 271.774 178.386 270.376 177.557C268.977 176.728 269.789 174.865 269.789 174.865C269.789 174.865 271.921 171.484 271.184 171.209C270.447 170.934 270.376 166.17 270.376 166.17C270.376 166.17 268.906 160.524 269.274 158.992C269.643 157.461 268.098 153.819 268.098 153.819L267.583 149.472C266.01 147.005 265.436 144.088 265.966 141.257V134.552C265.966 134.552 263.906 121.58 263.613 115.024C263.425 110.825 263.478 105.094 263.538 101.519C263.576 99.5149 263.613 98.1846 263.613 98.1846L295.369 95.0793C295.369 95.0793 295.339 96.4555 295.944 99.5079C296.271 101.145 296.779 103.266 297.576 105.916C299.854 113.506 298.459 119.163 298.459 119.163L298.162 128.758C298.162 128.758 300.955 135.173 300.369 137.382C300.014 138.694 299.815 140.038 299.775 141.391C299.775 141.391 306.022 155.4 305.361 159.472C304.699 163.544 307.417 169.963 307.417 169.963C307.417 169.963 308.161 174.515 307.424 175.757Z" fill="#464353"/>
<path opacity="0.05" d="M289.268 139.806L298.936 138.596C298.936 138.596 293.459 143.843 289.268 139.806Z" fill="black"/>
<path opacity="0.1" d="M297.538 129.728C297.538 129.728 297.869 132.939 295.775 134.146C295.775 134.146 299.523 133.596 297.538 129.728Z" fill="black"/>
<path opacity="0.1" d="M296.945 119.516C296.945 119.516 288.863 125.762 285.923 125.243C282.984 124.724 296.945 119.516 296.945 119.516Z" fill="black"/>
<path opacity="0.1" d="M277.285 142.735C277.285 142.735 271.147 144.044 270.962 146.359C270.778 148.674 277.285 142.735 277.285 142.735Z" fill="black"/>
<path opacity="0.05" d="M278.634 171.516C278.634 171.516 269.962 173.033 272.424 174.067C274.886 175.101 278.931 175.93 278.931 175.93C278.931 175.93 281.731 176.068 278.634 171.516Z" fill="black"/>
<g opacity="0.05">
<path opacity="0.05" d="M270.672 175.712C270.454 175.584 270.27 175.411 270.132 175.207C269.995 175.003 269.909 174.773 269.879 174.533L269.789 174.678C269.789 174.678 268.981 176.541 270.379 177.367C270.537 177.462 270.691 177.557 270.83 177.649C271.09 177.603 271.368 177.568 271.635 177.504C272.819 177.229 272.071 176.541 270.672 175.712Z" fill="black"/>
<path opacity="0.05" d="M281.844 175.158C282.085 174.953 282.078 174.424 281.931 173.746C281.555 174.279 281.446 175.112 281.438 175.743C281.53 175.524 281.668 175.325 281.844 175.158Z" fill="black"/>
<path opacity="0.05" d="M280.509 140.826C280.19 141.643 279.993 142.496 279.923 143.363C280.09 142.764 280.316 142.181 280.596 141.62L280.509 140.826Z" fill="black"/>
<path opacity="0.05" d="M300.373 137.206C300.43 136.958 300.457 136.704 300.452 136.451C300.343 136.966 300.267 137.442 300.211 137.862C300.26 137.647 300.312 137.442 300.373 137.206Z" fill="black"/>
<path opacity="0.05" d="M280.303 165.362C280.423 165.192 280.491 164.621 280.521 163.827C280.249 164.441 280.105 165.099 280.096 165.764C280.148 165.623 280.217 165.487 280.303 165.362Z" fill="black"/>
<path opacity="0.05" d="M282.107 178.376C281.651 179.76 281.313 181.176 281.096 182.61L272.206 183.574C272.206 183.574 271.394 182.61 270.217 180.045C270.122 179.847 270.038 179.644 269.966 179.438C269.432 179.667 269.214 180.186 269.92 181.7C271.097 184.255 271.913 185.229 271.913 185.229L280.803 184.262C280.803 184.262 281.464 179.914 282.344 179.085C282.795 178.686 282.517 178.478 282.107 178.376Z" fill="black"/>
<path opacity="0.05" d="M270.379 165.983C270.379 165.983 270.451 170.743 271.188 171.018C271.563 170.231 271.808 169.483 271.477 169.36C270.725 169.085 270.669 164.321 270.669 164.321C270.669 164.321 269.199 158.675 269.567 157.143C269.936 155.612 268.391 151.97 268.391 151.97L267.876 147.623C266.303 145.156 265.729 142.239 266.259 139.408V132.703C266.259 132.703 264.2 119.731 263.906 113.175C263.718 108.976 263.771 103.245 263.831 99.6703C263.831 99.0245 263.854 98.4529 263.865 97.9694L263.613 97.9941C263.613 97.9941 263.572 99.3209 263.538 101.329C263.478 104.903 263.421 110.634 263.613 114.83C263.906 121.386 265.963 134.362 265.963 134.362V141.066C265.435 143.897 266.01 146.812 267.583 149.278L268.094 153.625C268.094 153.625 269.639 157.281 269.27 158.802C268.902 160.323 270.379 165.983 270.379 165.983Z" fill="black"/>
<path opacity="0.05" d="M296.55 181.714C295.828 180.732 295.346 179.613 295.14 178.436C294.234 179.205 295.276 182.19 296.268 183.376C297.294 184.618 304.94 185.377 306.417 183.097V181.785C304.414 183.63 297.52 182.889 296.55 181.714Z" fill="black"/>
<path opacity="0.05" d="M307.721 173.915C307.318 174.578 306.974 175.271 306.691 175.987V176.964C306.861 176.611 307.097 176.138 307.443 175.581C307.676 175.038 307.786 174.455 307.766 173.869C307.766 173.869 307.733 173.901 307.721 173.915Z" fill="black"/>
<path opacity="0.05" d="M297 175.006C297.28 174.474 297.522 173.926 297.726 173.365C297.726 173.365 296.474 173.64 294.489 171.431C293.046 169.826 292.963 166.791 293.17 164.808C292.794 165.983 292.211 170.881 294.196 173.09C295.493 174.533 296.474 174.914 297 175.006Z" fill="black"/>
<path opacity="0.05" d="M293.166 159.702C293.296 161.061 293.345 162.427 293.313 163.791C293.35 163.576 293.4 163.363 293.463 163.153C293.839 161.978 293.463 158.047 293.463 158.047C293.463 158.047 293.538 155.284 292.948 154.387C292.358 153.491 291.129 148.381 291.129 148.381C291.129 148.381 291.129 146.656 290.099 145.759C289.069 144.863 288.407 141.341 288.407 141.341C287.8 140.463 287.534 139.415 287.655 138.374C287.877 136.648 286.407 134.785 286.407 134.785L283.908 127.332L281.555 121.743L280.228 124.989C280.228 124.989 280.228 125.399 280.183 126.048L281.258 123.412L283.611 128.991L286.111 136.444C286.111 136.444 287.58 138.307 287.359 140.032C287.237 141.073 287.503 142.122 288.11 143C288.11 143 288.772 146.529 289.802 147.418C290.832 148.307 290.828 150.04 290.828 150.04C290.828 150.04 292.08 155.146 292.666 156.039C293.253 156.932 293.166 159.702 293.166 159.702Z" fill="black"/>
</g>
<path d="M299.339 32.7367L298.786 35.2562L298.82 36.3784L298.843 37.2041L295.775 37.5005L295.433 36.9042C294.798 35.8244 293.478 33.6295 293.054 33.2907C292.486 32.8461 291.475 25.838 292.678 26.2544C293.418 26.5228 294.026 27.0396 294.384 27.7047C294.384 27.7047 300.425 28.354 299.339 32.7367Z" fill="#FFCDD3"/>
<path opacity="0.1" d="M298.842 37.2041L295.775 37.5005L295.433 36.9041C295.845 36.4632 296.408 36.1702 297.025 36.075C297.642 35.9797 298.274 36.0882 298.816 36.3819L298.842 37.2041Z" fill="black"/>
<path d="M299.617 38.5697L295.572 39.4484L295.486 38.8838L295.256 37.3629C295.256 37.3629 296.858 35.3585 299.173 36.8618L299.376 37.6346L299.617 38.5697Z" fill="#2EC1AC"/>
<path d="M234.098 33.0119L229.779 35.1856L229.403 34.4234C228.993 33.6153 228.38 32.3979 228.211 31.9533C227.955 31.2828 226.155 30.4359 226.155 30.4359C221.644 26.3814 227.019 22.895 227.019 22.895C229.869 17.5136 233.034 24.7229 233.034 24.7229C233.034 24.7229 233.477 28.5233 233.165 28.7774C232.853 29.0315 232.853 30.0725 232.853 30.0725C233.265 30.8183 233.613 31.5935 233.895 32.3909C234.026 32.7755 234.098 33.0119 234.098 33.0119Z" fill="#FFCDD3"/>
<path opacity="0.1" d="M234.097 33.0119L229.778 35.1856L229.402 34.4234C230.011 33.9435 232.173 32.3061 232.883 32.3732C233.222 32.4129 233.565 32.4212 233.906 32.3979C234.026 32.7755 234.097 33.0119 234.097 33.0119Z" fill="black"/>
<path d="M234.537 34.2364L229.684 36.4807L229.587 35.5032L229.519 34.8257C229.519 34.8257 232.331 32.5637 233.161 32.652C233.582 32.7091 234.008 32.7091 234.428 32.652L234.485 33.4706L234.537 34.2364Z" fill="#2EC1AC"/>
<path d="M287.577 49.4736C287.577 49.4736 266.421 51.7144 270.375 50.5076C273.127 49.6642 274.221 48.0374 274.45 46.2025C274.638 44.6745 274.217 43.0266 273.664 41.6151C273.167 40.3629 272.538 39.1606 271.785 38.0263C271.785 38.0263 287.949 29.6773 284.72 37.2676C284.222 38.4157 283.912 39.6282 283.803 40.8634C283.705 42.091 283.847 43.325 284.22 44.5051C284.83 46.42 285.991 48.1395 287.577 49.4736Z" fill="#FFCDD3"/>
<path opacity="0.1" d="M284.709 37.2571C284.211 38.4052 283.901 39.6176 283.791 40.8529C282.269 42.0562 280.6 41.975 278.454 41.975C276.807 41.975 274.98 42.3491 273.665 41.6045C273.167 40.3523 272.538 39.1501 271.785 38.0158C271.785 38.0158 287.945 29.6667 284.709 37.2571Z" fill="black"/>
<path d="M278.169 42.5043C283 42.5043 286.916 38.828 286.916 34.2929C286.916 29.7579 283 26.0815 278.169 26.0815C273.338 26.0815 269.421 29.7579 269.421 34.2929C269.421 38.828 273.338 42.5043 278.169 42.5043Z" fill="#FFCDD3"/>
<path opacity="0.1" d="M287.577 49.4736C287.577 49.4736 266.421 51.7144 270.375 50.5075C273.127 49.6642 274.221 48.0374 274.45 46.2024C275.503 45.1438 277.619 44.3569 278.961 43.9476C280.202 43.5559 281.541 43.5349 282.795 43.8876C283.288 44.027 283.758 44.2314 284.19 44.4945C284.806 46.4165 285.978 48.1401 287.577 49.4736Z" fill="black"/>
<path opacity="0.1" d="M299.616 38.5698L295.572 39.4484L295.485 38.8838C295.918 38.3254 296.524 37.9058 297.22 37.6823C297.917 37.4588 298.669 37.4421 299.376 37.6346L299.616 38.5698Z" fill="black"/>
<path opacity="0.1" d="M234.537 34.2363L229.684 36.4806L229.586 35.5032C231.158 34.7098 232.792 34.0291 234.473 33.4671L234.537 34.2363Z" fill="black"/>
<path opacity="0.1" d="M295.944 99.5149C287.745 100.743 276.093 102.31 274.243 101.78C272.706 101.343 267.804 101.389 263.538 101.526C263.575 99.522 263.613 98.1916 263.613 98.1916L295.369 95.0863C295.369 95.0863 295.339 96.4625 295.944 99.5149Z" fill="black"/>
<path d="M304.117 97.7082C304.117 97.7082 277.138 102.056 274.244 101.237C271.35 100.418 256.483 101.304 256.483 101.304C249.792 105.514 252.585 99.3033 252.585 99.3033C252.585 99.3033 251.998 96.0603 252.806 93.4384C253.349 91.5135 253.72 89.5494 253.915 87.5666C253.915 87.5666 253.769 83.4238 254.577 82.4569C255.385 81.4901 256.344 74.5913 256.344 74.5913C256.344 74.5913 257.077 69.8981 257.005 68.8642C256.934 67.8302 257.223 64.9296 257.223 64.9296L258.182 60.0987C252.667 59.4106 235.906 49.7488 235.906 49.7488C235.098 46.5059 228.85 38.9156 228.85 38.9156C228.759 38.2773 228.587 37.6517 228.335 37.0524C227.896 35.9479 234.511 33.7389 234.511 33.7389C234.511 33.7389 239.436 39.3849 240.466 40.9164C241.496 42.4478 245.022 45.2638 245.022 45.2638C245.569 45.2109 246.123 45.2786 246.638 45.4614L246.724 45.4861C247.906 45.9216 249.014 46.5159 250.014 47.2505C251.671 47.2136 253.279 47.783 254.498 48.8384C254.498 48.8384 257.505 48.422 258.028 48.9055C258.55 49.3889 261.114 48.9055 261.114 48.9055C261.114 48.9055 263.685 43.7994 265.377 45.2814C267.068 46.7635 274.244 46.6929 274.244 46.6929C275.199 45.5002 277.526 44.6463 278.98 44.2228C280.221 43.8328 281.56 43.8118 282.814 44.1628C283.355 44.3144 283.864 44.5532 284.318 44.8686L288.682 48.8702C288.682 48.8702 289.93 47.3493 289.784 47.007C289.637 46.6647 291.253 46.3859 291.253 46.3859C291.253 46.3859 293.385 45.7649 294.193 45.5567C295.001 45.3485 295.742 46.1707 295.809 46.2448C295.783 46.1566 295.23 44.4804 295.433 43.2101C295.636 41.9397 294.55 40.7399 294.55 40.7399C297.121 34.8046 302.929 39.773 302.929 39.773C302.929 39.773 303.59 43.016 303.004 44.2581C302.418 45.5002 303.59 48.1221 303.444 48.8137C303.297 49.5054 303.741 50.6769 303.741 51.9896C303.741 53.3023 302.989 55.783 302.564 56.8875C302.139 57.992 298.595 60.4763 298.595 60.4763C298.595 60.4763 298.373 64.4109 296.828 66.6869C295.283 68.963 296.253 76.7474 296.253 76.7474C296.253 76.7474 297.723 82.8204 299.561 84.7542C301.399 86.6879 304.117 97.7082 304.117 97.7082Z" fill="#3F3D56"/>
<path opacity="0.1" d="M264.79 52.3001C264.79 52.3001 263.982 50.0241 263.245 49.83C262.514 49.5775 261.801 49.278 261.114 48.9337L261.587 48.0833C261.587 48.0833 264.346 48.789 264.79 49.5548C265.234 50.3205 264.79 52.3001 264.79 52.3001Z" fill="black"/>
<path opacity="0.1" d="M250.013 47.2646C249.867 47.9703 243.322 48.5737 243.322 48.5737L246.63 45.4614L246.713 45.4896C247.899 45.9274 249.011 46.5254 250.013 47.2646Z" fill="black"/>
<path d="M231.083 38.3439C231.407 38.3439 231.669 38.0974 231.669 37.7934C231.669 37.4893 231.407 37.2429 231.083 37.2429C230.759 37.2429 230.497 37.4893 230.497 37.7934C230.497 38.0974 230.759 38.3439 231.083 38.3439Z" fill="#575988"/>
<path d="M231.834 39.4484C232.158 39.4484 232.421 39.202 232.421 38.8979C232.421 38.5939 232.158 38.3474 231.834 38.3474C231.511 38.3474 231.248 38.5939 231.248 38.8979C231.248 39.202 231.511 39.4484 231.834 39.4484Z" fill="#575988"/>
<path d="M232.572 40.4682C232.896 40.4682 233.158 40.2217 233.158 39.9177C233.158 39.6136 232.896 39.3672 232.572 39.3672C232.248 39.3672 231.985 39.6136 231.985 39.9177C231.985 40.2217 232.248 40.4682 232.572 40.4682Z" fill="#575988"/>
<path d="M233.342 41.5692C233.666 41.5692 233.929 41.3227 233.929 41.0187C233.929 40.7147 233.666 40.4682 233.342 40.4682C233.018 40.4682 232.756 40.7147 232.756 41.0187C232.756 41.3227 233.018 41.5692 233.342 41.5692Z" fill="#575988"/>
<path d="M302.635 41.4068C302.899 41.4068 303.112 41.2062 303.112 40.9586C303.112 40.7111 302.899 40.5105 302.635 40.5105C302.371 40.5105 302.158 40.7111 302.158 40.9586C302.158 41.2062 302.371 41.4068 302.635 41.4068Z" fill="#575988"/>
<path d="M302.71 42.4266C302.974 42.4266 303.188 42.226 303.188 41.9785C303.188 41.731 302.974 41.5303 302.71 41.5303C302.447 41.5303 302.233 41.731 302.233 41.9785C302.233 42.226 302.447 42.4266 302.71 42.4266Z" fill="#575988"/>
<path d="M302.774 43.4429C303.038 43.4429 303.252 43.2423 303.252 42.9948C303.252 42.7472 303.038 42.5466 302.774 42.5466C302.511 42.5466 302.297 42.7472 302.297 42.9948C302.297 43.2423 302.511 43.4429 302.774 43.4429Z" fill="#575988"/>
<path opacity="0.1" d="M264.816 71.0026C264.745 70.9214 281.318 90.566 294.181 79.214C294.193 79.2176 273.868 81.8041 264.816 71.0026Z" fill="black"/>
<path opacity="0.1" d="M255.306 81.2148C255.306 81.2148 265.222 81.4689 266.259 84.1472V86.935C265.977 87.082 265.659 87.1592 265.337 87.1592C265.014 87.1592 264.696 87.082 264.414 86.935C263.414 86.4268 257.418 83.5685 255.306 84.9447V81.2148Z" fill="black"/>
<path d="M255.49 81.2148C255.49 81.2148 264.974 81.4583 265.966 84.0131V86.6668C265.696 86.8077 265.392 86.8816 265.083 86.8816C264.774 86.8816 264.47 86.8077 264.199 86.6668C263.245 86.1869 257.512 83.4591 255.49 84.7718V81.2148Z" fill="#3F3D56"/>
<path opacity="0.1" d="M260.718 61.0021C261.731 63.2035 263.022 65.2827 264.564 67.1951C266.24 69.3088 268.271 71.1526 270.578 72.6541C270.578 72.6541 260.884 62.2795 260.718 61.0021Z" fill="black"/>
<path opacity="0.1" d="M257.475 50.1864C257.475 50.1864 259.129 56.891 263.391 59.1671L257.475 50.1864Z" fill="black"/>
<path opacity="0.1" d="M254.937 50.864C254.896 50.7404 253.467 56.1571 260.433 59.1671C260.433 59.1671 257.475 58.225 254.937 50.864Z" fill="black"/>
<path opacity="0.1" d="M298.237 46.3683C298.128 46.3683 301.673 48.4856 302.639 49.4736C302.639 49.4736 300.331 46.2272 298.237 46.3683Z" fill="black"/>
<path d="M275.803 41.735C275.804 41.9142 275.845 42.0911 275.923 42.2546C276.001 42.4182 276.114 42.5648 276.256 42.6852C276.397 42.8056 276.563 42.8971 276.744 42.9541C276.925 43.011 277.117 43.0321 277.307 43.016C279.972 43.1712 282.75 43.2806 285.201 42.3102C285.66 42.1562 286.073 41.8994 286.403 41.5621C286.839 41.0575 286.926 40.3729 287.103 39.7448C287.448 38.5168 288.185 37.4264 288.715 36.2584C289.612 34.285 289.912 32.1179 289.584 29.9948C289.514 29.344 289.285 28.7172 288.914 28.1634C288.208 27.2142 286.918 26.8295 285.982 26.0744C285.046 25.3192 284.445 24.1653 283.351 23.6042C282.366 23.089 281.16 23.1526 280.051 23.329C277.87 23.6767 275.779 24.4134 273.894 25.4992C273.258 25.8521 272.563 26.2861 271.834 26.1555C271.195 26.0426 270.728 25.538 270.33 25.0652C269.817 26.1944 269.602 27.423 269.702 28.6468C269.73 28.8264 269.724 29.0092 269.683 29.1867C269.592 29.4014 269.452 29.5951 269.274 29.7549C268.616 30.4606 268.206 31.6075 268.856 32.3344C269.138 32.6485 269.574 32.8214 269.849 33.1425C270.341 33.7177 270.176 34.554 270.165 35.288C270.137 35.5443 270.207 35.8014 270.36 36.0149C270.502 36.1393 270.676 36.2272 270.865 36.2698C271.054 36.3125 271.252 36.3085 271.439 36.2584C271.811 36.1531 272.202 36.1183 272.589 36.1561C272.997 36.2805 273.349 36.5288 273.589 36.8618C274.803 38.3474 275.284 39.9636 275.803 41.735Z" fill="#2D293D"/>
<g opacity="0.1">
<path opacity="0.1" d="M286.716 40.9374C286.385 41.2747 285.973 41.5315 285.513 41.6855C283.047 42.6489 280.273 42.5395 277.619 42.3913C277.334 42.394 277.052 42.3348 276.796 42.2184C276.39 41.9961 276.236 41.5303 276.112 41.1068C275.593 39.3424 275.116 37.7227 273.883 36.2512C273.645 35.9118 273.293 35.6571 272.883 35.5278C272.496 35.4936 272.106 35.5283 271.732 35.6302C271.546 35.6808 271.348 35.6853 271.159 35.6433C270.97 35.6012 270.796 35.5141 270.654 35.3902C270.5 35.1767 270.431 34.9196 270.458 34.6633C270.458 33.9223 270.635 33.093 270.142 32.5178C269.868 32.1967 269.432 32.0238 269.15 31.7062C268.966 31.4721 268.853 31.1955 268.823 30.9059C268.794 30.6164 268.848 30.3246 268.981 30.0618C268.511 30.7676 268.312 31.6533 268.857 32.2602C269.139 32.5743 269.575 32.7472 269.849 33.0683C270.342 33.647 270.176 34.4798 270.165 35.2138C270.136 35.4697 270.204 35.727 270.357 35.9407C270.499 36.0658 270.674 36.1539 270.864 36.1966C271.053 36.2393 271.252 36.235 271.439 36.1842C271.812 36.0789 272.203 36.0441 272.589 36.0819C272.997 36.2063 273.349 36.4546 273.589 36.7876C274.819 38.2591 275.3 39.8753 275.818 41.6467C275.879 42.0826 276.111 42.4815 276.469 42.7653C276.726 42.8819 277.01 42.9399 277.296 42.9347C279.961 43.09 282.739 43.2029 285.19 42.229C285.65 42.076 286.063 41.8191 286.393 41.4809C286.558 41.2821 286.685 41.0575 286.768 40.8175C286.772 40.8633 286.746 40.9022 286.716 40.9374Z" fill="black"/>
<path opacity="0.1" d="M269.703 28.9714C269.821 28.8511 269.912 28.7094 269.97 28.555C270.004 28.3765 270.004 28.1937 269.97 28.0151C269.896 27.0091 270.036 25.9993 270.379 25.0439L270.331 24.991C269.816 26.1185 269.601 27.3463 269.703 28.5692C269.714 28.703 269.714 28.8376 269.703 28.9714Z" fill="black"/>
</g>
<path opacity="0.1" d="M274.244 46.7106C274.244 46.7106 285.171 48.0727 286.152 46.5306L274.244 46.7106Z" fill="black"/>
<path opacity="0.1" d="M295.485 42.4655C295.485 42.4655 301.56 42.4654 302.894 44.6109L295.485 42.4655Z" fill="black"/>
<path d="M329.47 233.072C327.669 234.584 325.328 235.405 322.911 235.372C322.295 235.372 321.441 235.482 321.438 236.06C321.452 236.23 321.515 236.393 321.618 236.533C322.381 237.727 323.585 238.615 325.001 239.028C326.317 239.402 327.723 239.339 329.095 239.272L333.098 239.078C333.85 239.039 334.601 239.003 335.353 238.915C336.105 238.827 336.925 238.682 337.71 238.562C339.641 238.305 341.593 238.22 343.54 238.308C344.059 238.326 344.668 238.308 344.976 237.955C345.285 237.603 345.127 236.929 345.01 236.399C344.77 235.309 345.01 234.166 344.788 233.072C344.412 231.152 342.642 229.68 340.702 228.985C338.898 228.343 335.703 227.606 333.996 228.678C332.196 229.804 331.094 231.685 329.47 233.072Z" fill="#3F3D56"/>
<path d="M333.448 168.756C333.802 170.334 335.429 171.54 335.474 173.15C335.516 174.441 334.535 175.524 333.828 176.629C333.162 177.773 332.6 178.967 332.148 180.2C330.817 183.409 329.166 186.493 327.216 189.41C326.276 190.822 325.223 192.328 325.438 193.969C325.587 194.737 325.876 195.474 326.291 196.15L329.11 201.408C329.728 202.458 330.211 203.572 330.55 204.728C330.794 205.727 330.817 206.761 330.96 207.777C331.403 211.003 333.016 214.249 332.061 217.376C331.978 217.644 331.685 217.968 331.456 217.781C332.388 219.415 333.136 221.06 333.065 222.912C333.027 223.883 332.711 224.895 333.091 225.799C333.253 226.176 333.535 226.529 333.531 226.935C333.531 227.203 333.399 227.454 333.369 227.715C333.29 228.459 334.02 229.08 334.775 229.317C335.531 229.553 336.354 229.536 337.117 229.751C338.583 230.164 339.632 231.349 340.876 232.172C342.152 232.997 343.657 233.457 345.206 233.495C345.427 233.517 345.65 233.475 345.845 233.375C345.956 233.284 346.044 233.173 346.105 233.047C346.166 232.922 346.198 232.786 346.199 232.648C346.267 231.989 346.161 231.324 345.891 230.713C345.621 230.101 345.195 229.561 344.65 229.14C344.411 229 344.213 228.806 344.075 228.576C344.005 228.372 343.987 228.156 344.022 227.944C344.249 225.052 344.194 222.146 343.857 219.263C343.705 218.35 343.656 217.424 343.71 216.5C343.789 215.731 344.037 214.969 343.947 214.203C343.857 213.437 343.44 212.739 343.195 212.001C342.759 210.689 342.879 209.277 342.819 207.904C342.744 205.519 342.161 203.176 341.583 200.847C341.353 199.933 341.101 198.977 340.414 198.299C339.827 197.724 338.88 197.173 339.102 196.408C339.225 196.125 339.407 195.87 339.639 195.656C339.911 195.335 340.111 194.966 340.226 194.57C340.341 194.175 340.369 193.761 340.308 193.355C340.556 193.414 340.817 193.391 341.048 193.29C341.279 193.188 341.465 193.014 341.575 192.798C346.154 190.769 349.845 186.711 351.491 182.211C351.588 181.877 351.738 181.559 351.935 181.266C352.36 180.708 353.096 180.468 353.75 180.161C355.803 179.191 357.22 177.373 358.521 175.595C359.272 174.565 360.024 173.499 360.363 172.285C360.54 171.5 360.625 170.699 360.614 169.896L360.731 165.75C360.756 165.477 360.728 165.202 360.648 164.938C360.537 164.692 360.375 164.469 360.171 164.282C358.921 163.041 357.279 162.209 355.487 161.91C354.284 161.709 353.055 161.748 351.837 161.653C349.476 161.469 347.146 160.781 344.785 160.947C341.075 161.205 337.771 163.618 336.023 166.702C335.41 167.789 334.764 168.735 333.448 168.756Z" fill="#464353"/>
<path d="M312.848 141.797C312.898 142.437 312.806 143.08 312.577 143.684C312.288 144.263 311.563 144.715 310.927 144.478C311.119 144.073 310.612 143.61 310.138 143.66C309.905 143.71 309.688 143.813 309.507 143.959C309.326 144.105 309.185 144.291 309.097 144.5C308.783 145.092 308.677 145.763 308.796 146.416C308.946 147.227 309.446 148.007 309.315 148.822C309.209 149.5 308.679 150.174 308.961 150.802C309.144 151.089 309.374 151.347 309.642 151.568C310.013 151.997 310.195 152.544 310.149 153.096C310.104 153.647 309.835 154.161 309.397 154.532L316.509 154.666C316.25 155.781 316.784 156.921 317.393 157.912C319.098 160.639 321.454 162.957 324.274 164.685C327.094 166.413 330.302 167.505 333.647 167.874C333.466 167.973 333.311 168.109 333.192 168.271C333.074 168.433 332.996 168.618 332.963 168.812C332.931 169.007 332.944 169.205 333.003 169.394C333.062 169.582 333.165 169.756 333.305 169.903C333.883 170.443 334.865 170.376 335.59 170.027C336.316 169.677 336.883 169.099 337.545 168.65C338.713 167.874 340.137 167.513 341.563 167.634C342.454 167.715 343.319 167.987 344.213 168.029C346.844 168.16 349.1 166.381 351.633 165.654C353.479 165.122 355.573 165.122 357.122 164.038C357.791 163.573 358.339 162.807 358.144 162.052C357.982 161.618 357.726 161.22 357.392 160.884C356.501 159.8 355.975 158.498 355.336 157.267C354.07 154.828 352.327 152.635 350.197 150.802C348.59 149.483 346.887 148.271 345.1 147.174C344.668 146.875 344.208 146.614 343.724 146.395C343.1 146.137 342.409 146.013 341.845 145.689C341.01 145.195 340.529 144.323 339.887 143.621C338.477 142.075 336.312 141.366 334.575 140.152C333.41 139.337 332.38 138.264 330.989 137.873C330.312 137.678 329.594 137.664 328.918 137.474C327.38 137.036 326.26 135.755 324.753 135.237C323.561 134.827 322.246 134.933 320.994 134.788C319.583 134.625 318.235 134.143 317.066 133.384C316.689 133.096 316.267 132.865 315.814 132.699C313.908 132.156 313.754 135.487 313.559 136.641C313.307 138.356 312.848 140.06 312.848 141.797Z" fill="#2EC1AC"/>
<path d="M314.705 152.969C315.025 156.222 312.409 159.373 313.172 162.56C313.333 163.237 313.645 163.883 313.758 164.571C314.078 166.459 312.875 168.248 311.728 169.829L301.88 183.397C301.484 183.993 301.012 184.54 300.474 185.027C298.594 186.598 295.767 186.439 293.294 186.905C291.557 187.24 289.916 187.921 288.483 188.902C288.418 188.949 288.376 189.018 288.364 189.093C288.353 189.169 288.374 189.246 288.422 189.308C288.831 189.83 289.372 190.248 289.996 190.523C290.621 190.799 291.308 190.923 291.997 190.885C292.257 191.203 291.997 191.676 291.64 191.905C291.114 192.258 290.385 192.339 290.279 193.182C290.244 193.475 290.307 193.772 290.46 194.029C290.858 194.598 291.475 195 292.181 195.151C295.591 196.132 299.275 194.41 301.827 192.071C304.379 189.731 306.21 186.778 308.713 184.399C310.101 183.08 311.676 181.954 313.104 180.676C315.953 178.125 318.171 175.03 320.306 171.929C320.949 170.994 321.599 170.034 321.866 168.95C322.133 167.867 322.009 166.77 322.313 165.722C322.712 164.349 323.783 163.251 324.674 162.101C326.422 159.843 327.591 157.08 327.358 154.295C327.125 151.511 325.291 148.766 322.494 147.82C321.626 147.497 320.671 147.442 319.769 147.665C318.622 147.997 317.776 148.886 316.994 149.74L315.115 151.765C314.657 152.214 314.298 152.743 314.059 153.322C313.938 153.613 313.909 153.931 313.975 154.238C314.042 154.545 314.201 154.827 314.435 155.051" fill="#FBBEBE"/>
<path d="M319.697 139.623C318.404 139.693 316.979 139.813 316.066 140.681C315.683 141.08 315.373 141.536 315.149 142.029C314.262 143.727 313.397 145.502 313.333 147.393C313.281 148.904 313.747 150.382 313.991 151.875C314.194 153.117 313.679 154.384 313.581 155.64C315.186 155.178 317.306 154.55 318.761 153.77C319.754 153.237 320.712 152.63 321.795 152.291C323.34 151.808 325.93 152.644 327.399 153.314C327.478 152.348 326.704 150.661 326.787 149.69C326.798 149.282 326.875 148.877 327.016 148.491C327.236 148.082 327.496 147.693 327.794 147.33C328.354 146.476 328.611 145.478 328.529 144.478C328.447 143.478 328.031 142.529 327.339 141.765C326.035 140.389 323.994 139.873 322.047 139.648C320.82 139.514 319.585 139.474 318.351 139.528" fill="#2EC1AC"/>
</g>
<defs>
<linearGradient id="paint0_linear_657_2225" x1="266.199" y1="193.341" x2="266.199" y2="20.9047" gradientUnits="userSpaceOnUse">
<stop stop-color="#808080" stop-opacity="0.25"/>
<stop offset="0.54" stop-color="#808080" stop-opacity="0.12"/>
<stop offset="1" stop-color="#808080" stop-opacity="0.1"/>
</linearGradient>
<clipPath id="clip0_657_2225">
<rect width="394.536" height="239.458" fill="white" transform="translate(0.731934 0.6073)"/>
</clipPath>
</defs>
</svg>
