<svg width="82" height="82" viewBox="0 0 82 82" fill="none" xmlns="http://www.w3.org/2000/svg">
<path d="M43.4244 81.4522C39.225 80.7505 36.2122 77.9244 33.5556 75.4309C32.1329 74.0962 30.7875 72.8344 29.3497 71.9288C26.1009 69.8838 23.204 69.107 20.4015 68.356C15.8716 67.1436 11.1872 65.8882 6.14656 59.5472C1.0716 53.1612 -0.831776 47.0819 0.329134 40.9619C1.46644 34.96 5.51782 29.7713 8.91901 25.9238C11.1378 23.411 12.6893 20.3016 14.3287 17.0099C15.7557 14.1473 17.2299 11.1881 19.2299 8.50368C24.3606 1.6219 29.3562 -0.847981 35.9332 0.250699C38.4696 0.673433 41.0769 1.58542 43.8364 2.55106C46.2763 3.40297 48.7977 4.28491 51.6238 4.97802C51.8963 5.04454 52.186 5.10463 52.4821 5.15399C53.9198 5.39432 55.4348 5.40076 57.0356 5.40934C58.7459 5.41793 60.5119 5.42651 62.308 5.72693C64.4582 6.08529 66.3079 6.81703 67.958 7.96077C73.0609 11.495 73.5287 15.5314 73.9815 19.4325C74.166 21.0226 74.357 22.6642 74.8656 24.3702C75.5158 26.5461 76.6874 28.5524 77.9277 30.679C79.8246 33.9278 81.786 37.2882 81.9812 41.5134C82.3568 49.6462 77.0179 54.1633 72.9708 56.8542C71.6725 57.719 70.3936 58.3992 69.1576 59.058C66.5868 60.427 64.368 61.6094 62.911 63.9934C62.4754 64.7059 62.2436 65.9269 62.0205 67.1071C61.7522 68.5234 61.4733 69.989 60.7887 71.3065C58.3124 76.0789 52.8963 81.1067 46.3793 81.5874C45.375 81.656 44.3815 81.611 43.4244 81.4522Z" fill="#4D5DFA"/>
<path d="M7.82683 58.2125C15.4339 67.7831 21.5839 64.502 30.4935 70.1113C35.5706 73.3065 39.0813 79.9651 46.2227 79.4415C51.5938 79.0467 56.4778 74.9524 58.8854 70.313C60.0098 68.1457 59.8553 64.8776 61.0806 62.8712C63.6106 58.7318 67.7864 57.7211 71.7842 55.0645C76.3913 52.0003 80.1359 48.0669 79.8376 41.61C79.5479 35.3119 74.5588 30.8485 72.8077 24.9817C70.9752 18.8403 72.9451 14.025 66.735 9.72039C61.7952 6.29775 56.246 8.31915 51.111 7.05953C37.9847 3.84289 30.8133 -3.44874 20.9488 9.78477C16.8223 15.3211 14.9575 22.3273 10.5242 27.3422C2.64457 36.2625 -2.26515 45.5155 7.82683 58.2125Z" fill="#4D5DFA"/>
<path d="M53.3125 38.3333H46.875V23.3333C46.875 19.8333 44.9792 19.125 42.6667 21.75L41 23.6458L26.8959 39.6875C24.9584 41.875 25.7709 43.6667 28.6875 43.6667H35.125V58.6667C35.125 62.1667 37.0209 62.875 39.3334 60.25L41 58.3542L55.1042 42.3125C57.0417 40.125 56.2292 38.3333 53.3125 38.3333Z" fill="white"/>
</svg>
