<svg width="720" height="517" viewBox="0 0 720 517" fill="none" xmlns="http://www.w3.org/2000/svg">
<rect x="186" y="4" width="372" height="488" fill="white" stroke="black" stroke-width="8"/>
<path d="M282.12 75.328V103.616C282.12 105.024 282.163 106.325 282.248 107.52C282.376 108.672 282.632 109.653 283.016 110.464C283.443 111.275 284.061 111.915 284.872 112.384C285.683 112.811 286.792 113.024 288.2 113.024C289.608 113.024 290.717 112.811 291.528 112.384C292.339 111.915 292.936 111.275 293.32 110.464C293.747 109.653 294.003 108.672 294.088 107.52C294.216 106.325 294.28 105.024 294.28 103.616V75.328H303.88V102.336C303.88 105.408 303.667 108.096 303.24 110.4C302.856 112.704 302.088 114.624 300.936 116.16C299.784 117.696 298.184 118.848 296.136 119.616C294.088 120.384 291.443 120.768 288.2 120.768C284.957 120.768 282.312 120.384 280.264 119.616C278.216 118.848 276.616 117.696 275.464 116.16C274.312 114.624 273.523 112.704 273.096 110.4C272.712 108.096 272.52 105.408 272.52 102.336V75.328H282.12ZM311.151 86.976H320.623V92.992H321.071C321.882 91.0293 323.055 89.408 324.591 88.128C326.127 86.848 328.218 86.208 330.863 86.208C332.698 86.208 334.362 86.5493 335.855 87.232C337.391 87.9147 338.692 88.96 339.759 90.368C340.868 91.776 341.722 93.568 342.319 95.744C342.959 97.92 343.279 100.501 343.279 103.488C343.279 106.475 342.959 109.056 342.319 111.232C341.722 113.408 340.868 115.2 339.759 116.608C338.692 118.016 337.391 119.061 335.855 119.744C334.362 120.427 332.698 120.768 330.863 120.768C328.218 120.768 326.127 120.149 324.591 118.912C323.055 117.632 321.882 115.989 321.071 113.984H320.623V132.8H311.151V86.976ZM326.767 113.408C328.9 113.408 330.543 112.768 331.695 111.488C332.847 110.165 333.423 108.352 333.423 106.048V100.928C333.423 98.624 332.847 96.832 331.695 95.552C330.543 94.2293 328.9 93.568 326.767 93.568C325.103 93.568 323.652 93.9733 322.415 94.784C321.22 95.5947 320.623 96.8747 320.623 98.624V108.352C320.623 110.101 321.22 111.381 322.415 112.192C323.652 113.003 325.103 113.408 326.767 113.408ZM366.998 82.752C364.865 82.752 363.371 82.3253 362.518 81.472C361.707 80.576 361.302 79.5093 361.302 78.272V76.416C361.302 75.136 361.707 74.0693 362.518 73.216C363.371 72.3627 364.865 71.936 366.998 71.936C369.131 71.936 370.603 72.3627 371.414 73.216C372.267 74.0693 372.694 75.136 372.694 76.416V78.272C372.694 79.5093 372.267 80.576 371.414 81.472C370.603 82.3253 369.131 82.752 366.998 82.752ZM351.766 112.64H362.262V94.336H351.766V86.976H371.734V112.64H381.462V120H351.766V112.64Z" fill="black"/>
<path d="M388.989 120V75.328H406.269C408.445 75.328 410.386 75.6693 412.093 76.352C413.8 76.992 415.229 77.9307 416.381 79.168C417.576 80.4053 418.472 81.8987 419.069 83.648C419.666 85.3973 419.965 87.36 419.965 89.536C419.965 91.712 419.666 93.6747 419.069 95.424C418.472 97.1733 417.576 98.6667 416.381 99.904C415.229 101.141 413.8 102.101 412.093 102.784C410.386 103.424 408.445 103.744 406.269 103.744H398.653V120H388.989ZM398.653 96H403.837C406.098 96 407.656 95.5733 408.509 94.72C409.405 93.8667 409.853 92.4587 409.853 90.496V88.576C409.853 86.6133 409.405 85.2053 408.509 84.352C407.656 83.4987 406.098 83.072 403.837 83.072H398.653V96ZM453.668 120C451.705 120 450.127 119.509 448.932 118.528C447.737 117.504 447.033 116.053 446.82 114.176H446.5C445.903 116.352 444.708 117.995 442.916 119.104C441.167 120.213 439.012 120.768 436.452 120.768C433.252 120.768 430.671 119.915 428.708 118.208C426.788 116.459 425.828 114.027 425.828 110.912C425.828 107.456 427.087 104.896 429.604 103.232C432.121 101.568 435.812 100.736 440.676 100.736H445.988V99.072C445.988 97.1093 445.519 95.6373 444.58 94.656C443.684 93.632 442.148 93.12 439.972 93.12C437.967 93.12 436.345 93.504 435.108 94.272C433.871 95.04 432.804 96.0427 431.908 97.28L426.724 92.672C427.833 90.7947 429.561 89.2587 431.908 88.064C434.297 86.8267 437.348 86.208 441.06 86.208C445.583 86.208 449.103 87.2533 451.62 89.344C454.18 91.392 455.46 94.5067 455.46 98.688V113.152H459.108V120H453.668ZM440.036 114.56C441.7 114.56 443.108 114.155 444.26 113.344C445.412 112.533 445.988 111.36 445.988 109.824V105.856H440.932C437.049 105.856 435.108 107.157 435.108 109.76V111.04C435.108 112.192 435.556 113.067 436.452 113.664C437.348 114.261 438.543 114.56 440.036 114.56ZM488.395 86.976H498.059L482.507 125.312C481.526 127.744 480.224 129.6 478.603 130.88C476.982 132.16 474.763 132.8 471.947 132.8H465.419V125.44H473.355L475.403 119.808L462.091 86.976H472.267L477.067 100.864L480.075 110.464H480.587L483.467 100.864L488.395 86.976Z" fill="#00B9F5"/>
<g clip-path="url(#clip0_1_436)">
<path d="M500 174.5H244V430.5H500V174.5Z" fill="white"/>
<path d="M267.724 186H260V194H267.724V186Z" fill="black"/>
<path d="M275.448 186H267.724V194H275.448V186Z" fill="black"/>
<path d="M283.172 186H275.448V194H283.172V186Z" fill="black"/>
<path d="M290.897 186H283.172V194H290.897V186Z" fill="black"/>
<path d="M298.621 186H290.897V194H298.621V186Z" fill="black"/>
<path d="M306.345 186H298.621V194H306.345V186Z" fill="black"/>
<path d="M314.069 186H306.345V194H314.069V186Z" fill="black"/>
<path d="M329.517 186H321.793V194H329.517V186Z" fill="black"/>
<path d="M337.241 186H329.517V194H337.241V186Z" fill="black"/>
<path d="M344.966 186H337.241V194H344.966V186Z" fill="black"/>
<path d="M352.69 186H344.966V194H352.69V186Z" fill="black"/>
<path d="M368.138 186H360.414V194H368.138V186Z" fill="black"/>
<path d="M383.586 186H375.862V194H383.586V186Z" fill="black"/>
<path d="M406.759 186H399.034V194H406.759V186Z" fill="black"/>
<path d="M437.655 186H429.931V194H437.655V186Z" fill="black"/>
<path d="M445.379 186H437.655V194H445.379V186Z" fill="black"/>
<path d="M453.103 186H445.379V194H453.103V186Z" fill="black"/>
<path d="M460.828 186H453.103V194H460.828V186Z" fill="black"/>
<path d="M468.552 186H460.828V194H468.552V186Z" fill="black"/>
<path d="M476.276 186H468.552V194H476.276V186Z" fill="black"/>
<path d="M484 186H476.276V194H484V186Z" fill="black"/>
<path d="M267.724 194H260V202H267.724V194Z" fill="black"/>
<path d="M314.069 194H306.345V202H314.069V194Z" fill="black"/>
<path d="M337.241 194H329.517V202H337.241V194Z" fill="black"/>
<path d="M352.69 194H344.966V202H352.69V194Z" fill="black"/>
<path d="M360.414 194H352.69V202H360.414V194Z" fill="black"/>
<path d="M368.138 194H360.414V202H368.138V194Z" fill="black"/>
<path d="M375.862 194H368.138V202H375.862V194Z" fill="black"/>
<path d="M422.207 194H414.483V202H422.207V194Z" fill="black"/>
<path d="M437.655 194H429.931V202H437.655V194Z" fill="black"/>
<path d="M484 194H476.276V202H484V194Z" fill="black"/>
<path d="M267.724 202H260V210H267.724V202Z" fill="black"/>
<path d="M283.172 202H275.448V210H283.172V202Z" fill="black"/>
<path d="M290.897 202H283.172V210H290.897V202Z" fill="black"/>
<path d="M298.621 202H290.897V210H298.621V202Z" fill="black"/>
<path d="M314.069 202H306.345V210H314.069V202Z" fill="black"/>
<path d="M329.517 202H321.793V210H329.517V202Z" fill="black"/>
<path d="M337.241 202H329.517V210H337.241V202Z" fill="black"/>
<path d="M344.966 202H337.241V210H344.966V202Z" fill="black"/>
<path d="M352.69 202H344.966V210H352.69V202Z" fill="black"/>
<path d="M383.586 202H375.862V210H383.586V202Z" fill="black"/>
<path d="M399.034 202H391.31V210H399.034V202Z" fill="black"/>
<path d="M437.655 202H429.931V210H437.655V202Z" fill="black"/>
<path d="M453.103 202H445.379V210H453.103V202Z" fill="black"/>
<path d="M460.828 202H453.103V210H460.828V202Z" fill="black"/>
<path d="M468.552 202H460.828V210H468.552V202Z" fill="black"/>
<path d="M484 202H476.276V210H484V202Z" fill="black"/>
<path d="M267.724 210H260V218H267.724V210Z" fill="black"/>
<path d="M283.172 210H275.448V218H283.172V210Z" fill="black"/>
<path d="M290.897 210H283.172V218H290.897V210Z" fill="black"/>
<path d="M298.621 210H290.897V218H298.621V210Z" fill="black"/>
<path d="M314.069 210H306.345V218H314.069V210Z" fill="black"/>
<path d="M329.517 210H321.793V218H329.517V210Z" fill="black"/>
<path d="M352.69 210H344.966V218H352.69V210Z" fill="black"/>
<path d="M368.138 210H360.414V218H368.138V210Z" fill="black"/>
<path d="M375.862 210H368.138V218H375.862V210Z" fill="black"/>
<path d="M414.483 210H406.759V218H414.483V210Z" fill="black"/>
<path d="M422.207 210H414.483V218H422.207V210Z" fill="black"/>
<path d="M437.655 210H429.931V218H437.655V210Z" fill="black"/>
<path d="M453.103 210H445.379V218H453.103V210Z" fill="black"/>
<path d="M460.828 210H453.103V218H460.828V210Z" fill="black"/>
<path d="M468.552 210H460.828V218H468.552V210Z" fill="black"/>
<path d="M484 210H476.276V218H484V210Z" fill="black"/>
<path d="M267.724 218H260V226H267.724V218Z" fill="black"/>
<path d="M283.172 218H275.448V226H283.172V218Z" fill="black"/>
<path d="M290.897 218H283.172V226H290.897V218Z" fill="black"/>
<path d="M298.621 218H290.897V226H298.621V218Z" fill="black"/>
<path d="M314.069 218H306.345V226H314.069V218Z" fill="black"/>
<path d="M337.241 218H329.517V226H337.241V218Z" fill="black"/>
<path d="M344.966 218H337.241V226H344.966V218Z" fill="black"/>
<path d="M352.69 218H344.966V226H352.69V218Z" fill="black"/>
<path d="M360.414 218H352.69V226H360.414V218Z" fill="black"/>
<path d="M383.586 218H375.862V226H383.586V218Z" fill="black"/>
<path d="M399.034 218H391.31V226H399.034V218Z" fill="black"/>
<path d="M414.483 218H406.759V226H414.483V218Z" fill="black"/>
<path d="M437.655 218H429.931V226H437.655V218Z" fill="black"/>
<path d="M453.103 218H445.379V226H453.103V218Z" fill="black"/>
<path d="M460.828 218H453.103V226H460.828V218Z" fill="black"/>
<path d="M468.552 218H460.828V226H468.552V218Z" fill="black"/>
<path d="M484 218H476.276V226H484V218Z" fill="black"/>
<path d="M267.724 226H260V234H267.724V226Z" fill="black"/>
<path d="M314.069 226H306.345V234H314.069V226Z" fill="black"/>
<path d="M329.517 226H321.793V234H329.517V226Z" fill="black"/>
<path d="M337.241 226H329.517V234H337.241V226Z" fill="black"/>
<path d="M344.966 226H337.241V234H344.966V226Z" fill="black"/>
<path d="M391.31 226H383.586V234H391.31V226Z" fill="black"/>
<path d="M414.483 226H406.759V234H414.483V226Z" fill="black"/>
<path d="M437.655 226H429.931V234H437.655V226Z" fill="black"/>
<path d="M484 226H476.276V234H484V226Z" fill="black"/>
<path d="M267.724 234H260V242H267.724V234Z" fill="black"/>
<path d="M275.448 234H267.724V242H275.448V234Z" fill="black"/>
<path d="M283.172 234H275.448V242H283.172V234Z" fill="black"/>
<path d="M290.897 234H283.172V242H290.897V234Z" fill="black"/>
<path d="M298.621 234H290.897V242H298.621V234Z" fill="black"/>
<path d="M306.345 234H298.621V242H306.345V234Z" fill="black"/>
<path d="M314.069 234H306.345V242H314.069V234Z" fill="black"/>
<path d="M329.517 234H321.793V242H329.517V234Z" fill="black"/>
<path d="M344.966 234H337.241V242H344.966V234Z" fill="black"/>
<path d="M360.414 234H352.69V242H360.414V234Z" fill="black"/>
<path d="M375.862 234H368.138V242H375.862V234Z" fill="black"/>
<path d="M391.31 234H383.586V242H391.31V234Z" fill="black"/>
<path d="M406.759 234H399.034V242H406.759V234Z" fill="black"/>
<path d="M422.207 234H414.483V242H422.207V234Z" fill="black"/>
<path d="M437.655 234H429.931V242H437.655V234Z" fill="black"/>
<path d="M445.379 234H437.655V242H445.379V234Z" fill="black"/>
<path d="M453.103 234H445.379V242H453.103V234Z" fill="black"/>
<path d="M460.828 234H453.103V242H460.828V234Z" fill="black"/>
<path d="M468.552 234H460.828V242H468.552V234Z" fill="black"/>
<path d="M476.276 234H468.552V242H476.276V234Z" fill="black"/>
<path d="M484 234H476.276V242H484V234Z" fill="black"/>
<path d="M329.517 242H321.793V250H329.517V242Z" fill="black"/>
<path d="M337.241 242H329.517V250H337.241V242Z" fill="black"/>
<path d="M360.414 242H352.69V250H360.414V242Z" fill="black"/>
<path d="M368.138 242H360.414V250H368.138V242Z" fill="black"/>
<path d="M375.862 242H368.138V250H375.862V242Z" fill="black"/>
<path d="M391.31 242H383.586V250H391.31V242Z" fill="black"/>
<path d="M399.034 242H391.31V250H399.034V242Z" fill="black"/>
<path d="M406.759 242H399.034V250H406.759V242Z" fill="black"/>
<path d="M422.207 242H414.483V250H422.207V242Z" fill="black"/>
<path d="M267.724 250H260V258H267.724V250Z" fill="black"/>
<path d="M275.448 250H267.724V258H275.448V250Z" fill="black"/>
<path d="M290.897 250H283.172V258H290.897V250Z" fill="black"/>
<path d="M314.069 250H306.345V258H314.069V250Z" fill="black"/>
<path d="M321.793 250H314.069V258H321.793V250Z" fill="black"/>
<path d="M352.69 250H344.966V258H352.69V250Z" fill="black"/>
<path d="M360.414 250H352.69V258H360.414V250Z" fill="black"/>
<path d="M375.862 250H368.138V258H375.862V250Z" fill="black"/>
<path d="M383.586 250H375.862V258H383.586V250Z" fill="black"/>
<path d="M391.31 250H383.586V258H391.31V250Z" fill="black"/>
<path d="M399.034 250H391.31V258H399.034V250Z" fill="black"/>
<path d="M422.207 250H414.483V258H422.207V250Z" fill="black"/>
<path d="M429.931 250H422.207V258H429.931V250Z" fill="black"/>
<path d="M437.655 250H429.931V258H437.655V250Z" fill="black"/>
<path d="M445.379 250H437.655V258H445.379V250Z" fill="black"/>
<path d="M460.828 250H453.103V258H460.828V250Z" fill="black"/>
<path d="M468.552 250H460.828V258H468.552V250Z" fill="black"/>
<path d="M484 250H476.276V258H484V250Z" fill="black"/>
<path d="M283.172 258H275.448V266H283.172V258Z" fill="black"/>
<path d="M298.621 258H290.897V266H298.621V258Z" fill="black"/>
<path d="M321.793 258H314.069V266H321.793V258Z" fill="black"/>
<path d="M337.241 258H329.517V266H337.241V258Z" fill="black"/>
<path d="M375.862 258H368.138V266H375.862V258Z" fill="black"/>
<path d="M383.586 258H375.862V266H383.586V258Z" fill="black"/>
<path d="M445.379 258H437.655V266H445.379V258Z" fill="black"/>
<path d="M460.828 258H453.103V266H460.828V258Z" fill="black"/>
<path d="M476.276 258H468.552V266H476.276V258Z" fill="black"/>
<path d="M275.448 266H267.724V274H275.448V266Z" fill="black"/>
<path d="M306.345 266H298.621V274H306.345V266Z" fill="black"/>
<path d="M314.069 266H306.345V274H314.069V266Z" fill="black"/>
<path d="M321.793 266H314.069V274H321.793V266Z" fill="black"/>
<path d="M329.517 266H321.793V274H329.517V266Z" fill="black"/>
<path d="M344.966 266H337.241V274H344.966V266Z" fill="black"/>
<path d="M360.414 266H352.69V274H360.414V266Z" fill="black"/>
<path d="M375.862 266H368.138V274H375.862V266Z" fill="black"/>
<path d="M383.586 266H375.862V274H383.586V266Z" fill="black"/>
<path d="M422.207 266H414.483V274H422.207V266Z" fill="black"/>
<path d="M445.379 266H437.655V274H445.379V266Z" fill="black"/>
<path d="M453.103 266H445.379V274H453.103V266Z" fill="black"/>
<path d="M468.552 266H460.828V274H468.552V266Z" fill="black"/>
<path d="M484 266H476.276V274H484V266Z" fill="black"/>
<path d="M283.172 274H275.448V282H283.172V274Z" fill="black"/>
<path d="M290.897 274H283.172V282H290.897V274Z" fill="black"/>
<path d="M298.621 274H290.897V282H298.621V274Z" fill="black"/>
<path d="M306.345 274H298.621V282H306.345V274Z" fill="black"/>
<path d="M321.793 274H314.069V282H321.793V274Z" fill="black"/>
<path d="M329.517 274H321.793V282H329.517V274Z" fill="black"/>
<path d="M344.966 274H337.241V282H344.966V274Z" fill="black"/>
<path d="M352.69 274H344.966V282H352.69V274Z" fill="black"/>
<path d="M368.138 274H360.414V282H368.138V274Z" fill="black"/>
<path d="M375.862 274H368.138V282H375.862V274Z" fill="black"/>
<path d="M391.31 274H383.586V282H391.31V274Z" fill="black"/>
<path d="M399.034 274H391.31V282H399.034V274Z" fill="black"/>
<path d="M406.759 274H399.034V282H406.759V274Z" fill="black"/>
<path d="M422.207 274H414.483V282H422.207V274Z" fill="black"/>
<path d="M437.655 274H429.931V282H437.655V274Z" fill="black"/>
<path d="M453.103 274H445.379V282H453.103V274Z" fill="black"/>
<path d="M460.828 274H453.103V282H460.828V274Z" fill="black"/>
<path d="M468.552 274H460.828V282H468.552V274Z" fill="black"/>
<path d="M275.448 282H267.724V290H275.448V282Z" fill="black"/>
<path d="M283.172 282H275.448V290H283.172V282Z" fill="black"/>
<path d="M290.897 282H283.172V290H290.897V282Z" fill="black"/>
<path d="M298.621 282H290.897V290H298.621V282Z" fill="black"/>
<path d="M314.069 282H306.345V290H314.069V282Z" fill="black"/>
<path d="M329.517 282H321.793V290H329.517V282Z" fill="black"/>
<path d="M391.31 282H383.586V290H391.31V282Z" fill="black"/>
<path d="M406.759 282H399.034V290H406.759V282Z" fill="black"/>
<path d="M445.379 282H437.655V290H445.379V282Z" fill="black"/>
<path d="M460.828 282H453.103V290H460.828V282Z" fill="black"/>
<path d="M468.552 282H460.828V290H468.552V282Z" fill="black"/>
<path d="M484 282H476.276V290H484V282Z" fill="black"/>
<path d="M267.724 290H260V298H267.724V290Z" fill="black"/>
<path d="M275.448 290H267.724V298H275.448V290Z" fill="black"/>
<path d="M306.345 290H298.621V298H306.345V290Z" fill="black"/>
<path d="M329.517 290H321.793V298H329.517V290Z" fill="black"/>
<path d="M337.241 290H329.517V298H337.241V290Z" fill="black"/>
<path d="M344.966 290H337.241V298H344.966V290Z" fill="black"/>
<path d="M375.862 290H368.138V298H375.862V290Z" fill="black"/>
<path d="M406.759 290H399.034V298H406.759V290Z" fill="black"/>
<path d="M414.483 290H406.759V298H414.483V290Z" fill="black"/>
<path d="M422.207 290H414.483V298H422.207V290Z" fill="black"/>
<path d="M445.379 290H437.655V298H445.379V290Z" fill="black"/>
<path d="M460.828 290H453.103V298H460.828V290Z" fill="black"/>
<path d="M468.552 290H460.828V298H468.552V290Z" fill="black"/>
<path d="M267.724 298H260V306H267.724V298Z" fill="black"/>
<path d="M290.897 298H283.172V306H290.897V298Z" fill="black"/>
<path d="M298.621 298H290.897V306H298.621V298Z" fill="black"/>
<path d="M314.069 298H306.345V306H314.069V298Z" fill="black"/>
<path d="M337.241 298H329.517V306H337.241V298Z" fill="black"/>
<path d="M360.414 298H352.69V306H360.414V298Z" fill="black"/>
<path d="M368.138 298H360.414V306H368.138V298Z" fill="black"/>
<path d="M383.586 298H375.862V306H383.586V298Z" fill="black"/>
<path d="M391.31 298H383.586V306H391.31V298Z" fill="black"/>
<path d="M399.034 298H391.31V306H399.034V298Z" fill="black"/>
<path d="M406.759 298H399.034V306H406.759V298Z" fill="black"/>
<path d="M414.483 298H406.759V306H414.483V298Z" fill="black"/>
<path d="M422.207 298H414.483V306H422.207V298Z" fill="black"/>
<path d="M437.655 298H429.931V306H437.655V298Z" fill="black"/>
<path d="M445.379 298H437.655V306H445.379V298Z" fill="black"/>
<path d="M484 298H476.276V306H484V298Z" fill="black"/>
<path d="M267.724 306H260V314H267.724V306Z" fill="black"/>
<path d="M290.897 306H283.172V314H290.897V306Z" fill="black"/>
<path d="M306.345 306H298.621V314H306.345V306Z" fill="black"/>
<path d="M321.793 306H314.069V314H321.793V306Z" fill="black"/>
<path d="M329.517 306H321.793V314H329.517V306Z" fill="black"/>
<path d="M337.241 306H329.517V314H337.241V306Z" fill="black"/>
<path d="M360.414 306H352.69V314H360.414V306Z" fill="black"/>
<path d="M375.862 306H368.138V314H375.862V306Z" fill="black"/>
<path d="M391.31 306H383.586V314H391.31V306Z" fill="black"/>
<path d="M406.759 306H399.034V314H406.759V306Z" fill="black"/>
<path d="M429.931 306H422.207V314H429.931V306Z" fill="black"/>
<path d="M437.655 306H429.931V314H437.655V306Z" fill="black"/>
<path d="M445.379 306H437.655V314H445.379V306Z" fill="black"/>
<path d="M476.276 306H468.552V314H476.276V306Z" fill="black"/>
<path d="M275.448 314H267.724V322H275.448V314Z" fill="black"/>
<path d="M283.172 314H275.448V322H283.172V314Z" fill="black"/>
<path d="M298.621 314H290.897V322H298.621V314Z" fill="black"/>
<path d="M306.345 314H298.621V322H306.345V314Z" fill="black"/>
<path d="M314.069 314H306.345V322H314.069V314Z" fill="black"/>
<path d="M321.793 314H314.069V322H321.793V314Z" fill="black"/>
<path d="M344.966 314H337.241V322H344.966V314Z" fill="black"/>
<path d="M352.69 314H344.966V322H352.69V314Z" fill="black"/>
<path d="M368.138 314H360.414V322H368.138V314Z" fill="black"/>
<path d="M375.862 314H368.138V322H375.862V314Z" fill="black"/>
<path d="M383.586 314H375.862V322H383.586V314Z" fill="black"/>
<path d="M391.31 314H383.586V322H391.31V314Z" fill="black"/>
<path d="M399.034 314H391.31V322H399.034V314Z" fill="black"/>
<path d="M406.759 314H399.034V322H406.759V314Z" fill="black"/>
<path d="M422.207 314H414.483V322H422.207V314Z" fill="black"/>
<path d="M429.931 314H422.207V322H429.931V314Z" fill="black"/>
<path d="M453.103 314H445.379V322H453.103V314Z" fill="black"/>
<path d="M267.724 322H260V330H267.724V322Z" fill="black"/>
<path d="M290.897 322H283.172V330H290.897V322Z" fill="black"/>
<path d="M298.621 322H290.897V330H298.621V322Z" fill="black"/>
<path d="M321.793 322H314.069V330H321.793V322Z" fill="black"/>
<path d="M329.517 322H321.793V330H329.517V322Z" fill="black"/>
<path d="M344.966 322H337.241V330H344.966V322Z" fill="black"/>
<path d="M360.414 322H352.69V330H360.414V322Z" fill="black"/>
<path d="M368.138 322H360.414V330H368.138V322Z" fill="black"/>
<path d="M391.31 322H383.586V330H391.31V322Z" fill="black"/>
<path d="M399.034 322H391.31V330H399.034V322Z" fill="black"/>
<path d="M406.759 322H399.034V330H406.759V322Z" fill="black"/>
<path d="M437.655 322H429.931V330H437.655V322Z" fill="black"/>
<path d="M468.552 322H460.828V330H468.552V322Z" fill="black"/>
<path d="M476.276 322H468.552V330H476.276V322Z" fill="black"/>
<path d="M484 322H476.276V330H484V322Z" fill="black"/>
<path d="M267.724 330H260V338H267.724V330Z" fill="black"/>
<path d="M275.448 330H267.724V338H275.448V330Z" fill="black"/>
<path d="M314.069 330H306.345V338H314.069V330Z" fill="black"/>
<path d="M321.793 330H314.069V338H321.793V330Z" fill="black"/>
<path d="M329.517 330H321.793V338H329.517V330Z" fill="black"/>
<path d="M368.138 330H360.414V338H368.138V330Z" fill="black"/>
<path d="M383.586 330H375.862V338H383.586V330Z" fill="black"/>
<path d="M422.207 330H414.483V338H422.207V330Z" fill="black"/>
<path d="M429.931 330H422.207V338H429.931V330Z" fill="black"/>
<path d="M445.379 330H437.655V338H445.379V330Z" fill="black"/>
<path d="M453.103 330H445.379V338H453.103V330Z" fill="black"/>
<path d="M460.828 330H453.103V338H460.828V330Z" fill="black"/>
<path d="M468.552 330H460.828V338H468.552V330Z" fill="black"/>
<path d="M476.276 330H468.552V338H476.276V330Z" fill="black"/>
<path d="M484 330H476.276V338H484V330Z" fill="black"/>
<path d="M267.724 338H260V346H267.724V338Z" fill="black"/>
<path d="M283.172 338H275.448V346H283.172V338Z" fill="black"/>
<path d="M290.897 338H283.172V346H290.897V338Z" fill="black"/>
<path d="M298.621 338H290.897V346H298.621V338Z" fill="black"/>
<path d="M306.345 338H298.621V346H306.345V338Z" fill="black"/>
<path d="M329.517 338H321.793V346H329.517V338Z" fill="black"/>
<path d="M337.241 338H329.517V346H337.241V338Z" fill="black"/>
<path d="M368.138 338H360.414V346H368.138V338Z" fill="black"/>
<path d="M375.862 338H368.138V346H375.862V338Z" fill="black"/>
<path d="M383.586 338H375.862V346H383.586V338Z" fill="black"/>
<path d="M422.207 338H414.483V346H422.207V338Z" fill="black"/>
<path d="M437.655 338H429.931V346H437.655V338Z" fill="black"/>
<path d="M476.276 338H468.552V346H476.276V338Z" fill="black"/>
<path d="M484 338H476.276V346H484V338Z" fill="black"/>
<path d="M275.448 346H267.724V354H275.448V346Z" fill="black"/>
<path d="M283.172 346H275.448V354H283.172V346Z" fill="black"/>
<path d="M306.345 346H298.621V354H306.345V346Z" fill="black"/>
<path d="M314.069 346H306.345V354H314.069V346Z" fill="black"/>
<path d="M337.241 346H329.517V354H337.241V346Z" fill="black"/>
<path d="M399.034 346H391.31V354H399.034V346Z" fill="black"/>
<path d="M406.759 346H399.034V354H406.759V346Z" fill="black"/>
<path d="M422.207 346H414.483V354H422.207V346Z" fill="black"/>
<path d="M429.931 346H422.207V354H429.931V346Z" fill="black"/>
<path d="M437.655 346H429.931V354H437.655V346Z" fill="black"/>
<path d="M445.379 346H437.655V354H445.379V346Z" fill="black"/>
<path d="M453.103 346H445.379V354H453.103V346Z" fill="black"/>
<path d="M476.276 346H468.552V354H476.276V346Z" fill="black"/>
<path d="M484 346H476.276V354H484V346Z" fill="black"/>
<path d="M337.241 354H329.517V362H337.241V354Z" fill="black"/>
<path d="M352.69 354H344.966V362H352.69V354Z" fill="black"/>
<path d="M368.138 354H360.414V362H368.138V354Z" fill="black"/>
<path d="M391.31 354H383.586V362H391.31V354Z" fill="black"/>
<path d="M399.034 354H391.31V362H399.034V354Z" fill="black"/>
<path d="M406.759 354H399.034V362H406.759V354Z" fill="black"/>
<path d="M414.483 354H406.759V362H414.483V354Z" fill="black"/>
<path d="M422.207 354H414.483V362H422.207V354Z" fill="black"/>
<path d="M453.103 354H445.379V362H453.103V354Z" fill="black"/>
<path d="M267.724 362H260V370H267.724V362Z" fill="black"/>
<path d="M275.448 362H267.724V370H275.448V362Z" fill="black"/>
<path d="M283.172 362H275.448V370H283.172V362Z" fill="black"/>
<path d="M290.897 362H283.172V370H290.897V362Z" fill="black"/>
<path d="M298.621 362H290.897V370H298.621V362Z" fill="black"/>
<path d="M306.345 362H298.621V370H306.345V362Z" fill="black"/>
<path d="M314.069 362H306.345V370H314.069V362Z" fill="black"/>
<path d="M329.517 362H321.793V370H329.517V362Z" fill="black"/>
<path d="M337.241 362H329.517V370H337.241V362Z" fill="black"/>
<path d="M352.69 362H344.966V370H352.69V362Z" fill="black"/>
<path d="M368.138 362H360.414V370H368.138V362Z" fill="black"/>
<path d="M406.759 362H399.034V370H406.759V362Z" fill="black"/>
<path d="M422.207 362H414.483V370H422.207V362Z" fill="black"/>
<path d="M437.655 362H429.931V370H437.655V362Z" fill="black"/>
<path d="M453.103 362H445.379V370H453.103V362Z" fill="black"/>
<path d="M476.276 362H468.552V370H476.276V362Z" fill="black"/>
<path d="M484 362H476.276V370H484V362Z" fill="black"/>
<path d="M267.724 370H260V378H267.724V370Z" fill="black"/>
<path d="M314.069 370H306.345V378H314.069V370Z" fill="black"/>
<path d="M337.241 370H329.517V378H337.241V370Z" fill="black"/>
<path d="M344.966 370H337.241V378H344.966V370Z" fill="black"/>
<path d="M360.414 370H352.69V378H360.414V370Z" fill="black"/>
<path d="M375.862 370H368.138V378H375.862V370Z" fill="black"/>
<path d="M391.31 370H383.586V378H391.31V370Z" fill="black"/>
<path d="M399.034 370H391.31V378H399.034V370Z" fill="black"/>
<path d="M414.483 370H406.759V378H414.483V370Z" fill="black"/>
<path d="M422.207 370H414.483V378H422.207V370Z" fill="black"/>
<path d="M453.103 370H445.379V378H453.103V370Z" fill="black"/>
<path d="M468.552 370H460.828V378H468.552V370Z" fill="black"/>
<path d="M476.276 370H468.552V378H476.276V370Z" fill="black"/>
<path d="M267.724 378H260V386H267.724V378Z" fill="black"/>
<path d="M283.172 378H275.448V386H283.172V378Z" fill="black"/>
<path d="M290.897 378H283.172V386H290.897V378Z" fill="black"/>
<path d="M298.621 378H290.897V386H298.621V378Z" fill="black"/>
<path d="M314.069 378H306.345V386H314.069V378Z" fill="black"/>
<path d="M337.241 378H329.517V386H337.241V378Z" fill="black"/>
<path d="M391.31 378H383.586V386H391.31V378Z" fill="black"/>
<path d="M406.759 378H399.034V386H406.759V378Z" fill="black"/>
<path d="M422.207 378H414.483V386H422.207V378Z" fill="black"/>
<path d="M429.931 378H422.207V386H429.931V378Z" fill="black"/>
<path d="M437.655 378H429.931V386H437.655V378Z" fill="black"/>
<path d="M445.379 378H437.655V386H445.379V378Z" fill="black"/>
<path d="M453.103 378H445.379V386H453.103V378Z" fill="black"/>
<path d="M460.828 378H453.103V386H460.828V378Z" fill="black"/>
<path d="M476.276 378H468.552V386H476.276V378Z" fill="black"/>
<path d="M267.724 386H260V394H267.724V386Z" fill="black"/>
<path d="M283.172 386H275.448V394H283.172V386Z" fill="black"/>
<path d="M290.897 386H283.172V394H290.897V386Z" fill="black"/>
<path d="M298.621 386H290.897V394H298.621V386Z" fill="black"/>
<path d="M314.069 386H306.345V394H314.069V386Z" fill="black"/>
<path d="M329.517 386H321.793V394H329.517V386Z" fill="black"/>
<path d="M360.414 386H352.69V394H360.414V386Z" fill="black"/>
<path d="M391.31 386H383.586V394H391.31V386Z" fill="black"/>
<path d="M399.034 386H391.31V394H399.034V386Z" fill="black"/>
<path d="M422.207 386H414.483V394H422.207V386Z" fill="black"/>
<path d="M429.931 386H422.207V394H429.931V386Z" fill="black"/>
<path d="M437.655 386H429.931V394H437.655V386Z" fill="black"/>
<path d="M445.379 386H437.655V394H445.379V386Z" fill="black"/>
<path d="M460.828 386H453.103V394H460.828V386Z" fill="black"/>
<path d="M476.276 386H468.552V394H476.276V386Z" fill="black"/>
<path d="M484 386H476.276V394H484V386Z" fill="black"/>
<path d="M267.724 394H260V402H267.724V394Z" fill="black"/>
<path d="M283.172 394H275.448V402H283.172V394Z" fill="black"/>
<path d="M290.897 394H283.172V402H290.897V394Z" fill="black"/>
<path d="M298.621 394H290.897V402H298.621V394Z" fill="black"/>
<path d="M314.069 394H306.345V402H314.069V394Z" fill="black"/>
<path d="M344.966 394H337.241V402H344.966V394Z" fill="black"/>
<path d="M360.414 394H352.69V402H360.414V394Z" fill="black"/>
<path d="M368.138 394H360.414V402H368.138V394Z" fill="black"/>
<path d="M375.862 394H368.138V402H375.862V394Z" fill="black"/>
<path d="M399.034 394H391.31V402H399.034V394Z" fill="black"/>
<path d="M406.759 394H399.034V402H406.759V394Z" fill="black"/>
<path d="M414.483 394H406.759V402H414.483V394Z" fill="black"/>
<path d="M422.207 394H414.483V402H422.207V394Z" fill="black"/>
<path d="M429.931 394H422.207V402H429.931V394Z" fill="black"/>
<path d="M453.103 394H445.379V402H453.103V394Z" fill="black"/>
<path d="M468.552 394H460.828V402H468.552V394Z" fill="black"/>
<path d="M267.724 402H260V410H267.724V402Z" fill="black"/>
<path d="M314.069 402H306.345V410H314.069V402Z" fill="black"/>
<path d="M329.517 402H321.793V410H329.517V402Z" fill="black"/>
<path d="M344.966 402H337.241V410H344.966V402Z" fill="black"/>
<path d="M368.138 402H360.414V410H368.138V402Z" fill="black"/>
<path d="M375.862 402H368.138V410H375.862V402Z" fill="black"/>
<path d="M383.586 402H375.862V410H383.586V402Z" fill="black"/>
<path d="M391.31 402H383.586V410H391.31V402Z" fill="black"/>
<path d="M399.034 402H391.31V410H399.034V402Z" fill="black"/>
<path d="M429.931 402H422.207V410H429.931V402Z" fill="black"/>
<path d="M437.655 402H429.931V410H437.655V402Z" fill="black"/>
<path d="M453.103 402H445.379V410H453.103V402Z" fill="black"/>
<path d="M460.828 402H453.103V410H460.828V402Z" fill="black"/>
<path d="M476.276 402H468.552V410H476.276V402Z" fill="black"/>
<path d="M484 402H476.276V410H484V402Z" fill="black"/>
<path d="M267.724 410H260V418H267.724V410Z" fill="black"/>
<path d="M275.448 410H267.724V418H275.448V410Z" fill="black"/>
<path d="M283.172 410H275.448V418H283.172V410Z" fill="black"/>
<path d="M290.897 410H283.172V418H290.897V410Z" fill="black"/>
<path d="M298.621 410H290.897V418H298.621V410Z" fill="black"/>
<path d="M306.345 410H298.621V418H306.345V410Z" fill="black"/>
<path d="M314.069 410H306.345V418H314.069V410Z" fill="black"/>
<path d="M329.517 410H321.793V418H329.517V410Z" fill="black"/>
<path d="M337.241 410H329.517V418H337.241V410Z" fill="black"/>
<path d="M352.69 410H344.966V418H352.69V410Z" fill="black"/>
<path d="M368.138 410H360.414V418H368.138V410Z" fill="black"/>
<path d="M375.862 410H368.138V418H375.862V410Z" fill="black"/>
<path d="M429.931 410H422.207V418H429.931V410Z" fill="black"/>
<path d="M453.103 410H445.379V418H453.103V410Z" fill="black"/>
<path d="M468.552 410H460.828V418H468.552V410Z" fill="black"/>
</g>
<path opacity="0.8" d="M120 496L610 496" stroke="black" stroke-width="8"/>
<defs>
<clipPath id="clip0_1_436">
<rect width="256" height="256" fill="white" transform="translate(244 174.5)"/>
</clipPath>
</defs>
</svg>
