<svg width="418" height="222" viewBox="0 0 418 222" fill="none" xmlns="http://www.w3.org/2000/svg">
<path d="M218.256 112.455C218.256 172.586 169.51 221.333 109.378 221.333C49.2463 221.333 0.5 172.586 0.5 112.455C0.5 52.323 49.2463 3.57666 109.378 3.57666C169.51 3.57666 218.256 52.323 218.256 112.455Z" stroke="#66D6FF"/>
<path d="M109.378 201.833C158.74 201.833 198.756 161.817 198.756 112.455C198.756 63.0926 158.74 23.0767 109.378 23.0767C60.0159 23.0767 20 63.0926 20 112.455C20 161.817 60.0159 201.833 109.378 201.833Z" stroke="#66D6FF" stroke-width="40"/>
<mask id="mask0_5443_5396" style="mask-type:alpha" maskUnits="userSpaceOnUse" x="0" y="3" width="219" height="219">
<path d="M109.378 201.833C158.74 201.833 198.756 161.817 198.756 112.455C198.756 63.0926 158.74 23.0767 109.378 23.0767C60.0159 23.0767 20 63.0926 20 112.455C20 161.817 60.0159 201.833 109.378 201.833Z" stroke="#66D6FF" stroke-width="40"/>
</mask>
<g mask="url(#mask0_5443_5396)">
<path d="M245.097 144.148L161.391 60.4424L57.3658 164.468L141.072 248.174L245.097 144.148Z" fill="#2DC9F8"/>
</g>
<path d="M109.378 186.299C150.161 186.299 183.223 153.238 183.223 112.454C183.223 71.6709 150.161 38.6094 109.378 38.6094C68.5945 38.6094 35.533 71.6709 35.533 112.454C35.533 153.238 68.5945 186.299 109.378 186.299Z" fill="white"/>
<path d="M79.2019 128.256H138.702C135.827 133.648 131.54 138.158 126.3 141.301C121.059 144.445 115.063 146.104 108.952 146.102C102.841 146.103 96.8449 144.444 91.6046 141.3C86.3644 138.157 82.0773 133.648 79.2019 128.256V128.256Z" fill="#66D6FF"/>
<path d="M84.6528 104.517C85.1874 103.07 86.1523 101.822 87.4178 100.941C88.6834 100.059 90.1886 99.5868 91.7308 99.5869C93.273 99.5871 94.7781 100.06 96.0435 100.941C97.309 101.823 98.2741 103.07 98.8088 104.517" stroke="#66D6FF" stroke-width="5" stroke-miterlimit="10" stroke-linecap="round"/>
<path d="M118.36 104.517C118.894 103.07 119.859 101.822 121.125 100.941C122.39 100.059 123.896 99.5868 125.438 99.5869C126.98 99.5871 128.485 100.06 129.751 100.941C131.016 101.823 131.981 103.07 132.516 104.517" stroke="#66D6FF" stroke-width="5" stroke-miterlimit="10" stroke-linecap="round"/>
<path d="M259.005 26.1316C259.005 39.7731 247.946 50.8316 234.305 50.8316C220.664 50.8316 209.605 39.7731 209.605 26.1316C209.605 12.4902 220.664 1.43164 234.305 1.43164C247.946 1.43164 259.005 12.4902 259.005 26.1316Z" fill="white" stroke="#66D6FF"/>
<path d="M234.305 43.8316C244.08 43.8316 252.005 35.9071 252.005 26.1316C252.005 16.3562 244.08 8.43164 234.305 8.43164C224.53 8.43164 216.605 16.3562 216.605 26.1316C216.605 35.9071 224.53 43.8316 234.305 43.8316Z" stroke="#66D6FF" stroke-width="15"/>
<path d="M334.068 77.6038C334.068 91.2452 323.009 102.304 309.368 102.304C295.727 102.304 284.668 91.2452 284.668 77.6038C284.668 63.9624 295.727 52.9038 309.368 52.9038C323.009 52.9038 334.068 63.9624 334.068 77.6038Z" fill="white" stroke="#66D6FF"/>
<path d="M309.368 95.3038C319.143 95.3038 327.068 87.3792 327.068 77.6038C327.068 67.8284 319.143 59.9038 309.368 59.9038C299.593 59.9038 291.668 67.8284 291.668 77.6038C291.668 87.3792 299.593 95.3038 309.368 95.3038Z" stroke="#66D6FF" stroke-width="15"/>
<path d="M234.542 101.014L283.998 2.10254H307.857L258.402 101.014H234.542Z" fill="#66D6FF" stroke="#66D6FF"/>
<path d="M248.447 127.818H253.983V144.821C253.983 146.73 253.527 148.401 252.615 149.832C251.712 151.264 250.446 152.381 248.818 153.182C247.19 153.974 245.294 154.371 243.129 154.371C240.956 154.371 239.055 153.974 237.428 153.182C235.8 152.381 234.534 151.264 233.631 149.832C232.727 148.401 232.276 146.73 232.276 144.821V127.818H237.811V144.348C237.811 145.345 238.028 146.232 238.463 147.007C238.906 147.783 239.528 148.392 240.33 148.835C241.131 149.278 242.064 149.5 243.129 149.5C244.203 149.5 245.136 149.278 245.929 148.835C246.73 148.392 247.348 147.783 247.783 147.007C248.226 146.232 248.447 145.345 248.447 144.348V127.818ZM258.537 154V127.818H268.867C270.853 127.818 272.544 128.197 273.942 128.956C275.34 129.706 276.405 130.75 277.138 132.088C277.88 133.418 278.25 134.952 278.25 136.69C278.25 138.429 277.875 139.963 277.125 141.293C276.375 142.622 275.289 143.658 273.865 144.399C272.451 145.141 270.738 145.511 268.726 145.511H262.142V141.075H267.831C268.897 141.075 269.775 140.892 270.465 140.526C271.164 140.151 271.684 139.635 272.025 138.979C272.374 138.314 272.549 137.551 272.549 136.69C272.549 135.821 272.374 135.062 272.025 134.415C271.684 133.759 271.164 133.251 270.465 132.893C269.766 132.527 268.88 132.344 267.806 132.344H264.073V154H258.537ZM287.381 127.818V154H281.846V127.818H287.381ZM297.752 150.42L297.612 151.827C297.501 152.952 297.288 154.072 296.973 155.189C296.666 156.314 296.342 157.332 296.001 158.244C295.669 159.156 295.4 159.872 295.196 160.392H291.667C291.795 159.889 291.97 159.186 292.191 158.283C292.413 157.388 292.622 156.382 292.818 155.266C293.014 154.149 293.137 153.011 293.189 151.852L293.252 150.42H297.752ZM309.936 154V127.818H320.265C322.243 127.818 323.93 128.172 325.328 128.879C326.734 129.578 327.804 130.571 328.537 131.858C329.278 133.136 329.649 134.641 329.649 136.371C329.649 138.109 329.274 139.605 328.524 140.858C327.774 142.102 326.687 143.057 325.264 143.722C323.849 144.386 322.136 144.719 320.125 144.719H313.208V140.27H319.23C320.287 140.27 321.164 140.125 321.863 139.835C322.562 139.545 323.082 139.111 323.423 138.531C323.772 137.952 323.947 137.232 323.947 136.371C323.947 135.501 323.772 134.768 323.423 134.172C323.082 133.575 322.558 133.124 321.85 132.817C321.152 132.501 320.27 132.344 319.204 132.344H315.471V154H309.936ZM324.075 142.085L330.582 154H324.471L318.105 142.085H324.075ZM346.051 145.639V134.364H351.497V154H346.268V150.433H346.064C345.62 151.584 344.883 152.509 343.852 153.207C342.829 153.906 341.581 154.256 340.106 154.256C338.794 154.256 337.639 153.957 336.642 153.361C335.645 152.764 334.865 151.916 334.302 150.817C333.748 149.717 333.467 148.401 333.458 146.866V134.364H338.904V145.895C338.913 147.054 339.224 147.97 339.838 148.643C340.451 149.317 341.274 149.653 342.305 149.653C342.961 149.653 343.575 149.504 344.146 149.206C344.717 148.899 345.177 148.447 345.527 147.851C345.885 147.254 346.059 146.517 346.051 145.639ZM355.853 161.364V134.364H361.222V137.662H361.465C361.704 137.134 362.049 136.597 362.501 136.051C362.961 135.497 363.558 135.037 364.29 134.67C365.032 134.295 365.952 134.108 367.052 134.108C368.484 134.108 369.805 134.483 371.015 135.233C372.225 135.974 373.192 137.095 373.917 138.595C374.641 140.087 375.004 141.957 375.004 144.207C375.004 146.398 374.65 148.247 373.942 149.756C373.244 151.256 372.289 152.393 371.079 153.169C369.877 153.936 368.531 154.32 367.039 154.32C365.982 154.32 365.083 154.145 364.342 153.795C363.609 153.446 363.008 153.007 362.539 152.479C362.07 151.942 361.712 151.401 361.465 150.855H361.299V161.364H355.853ZM361.184 144.182C361.184 145.349 361.346 146.368 361.67 147.237C361.994 148.107 362.462 148.784 363.076 149.27C363.69 149.747 364.435 149.986 365.313 149.986C366.2 149.986 366.95 149.743 367.563 149.257C368.177 148.763 368.641 148.081 368.957 147.212C369.281 146.334 369.442 145.324 369.442 144.182C369.442 143.048 369.285 142.051 368.969 141.19C368.654 140.33 368.19 139.656 367.576 139.17C366.962 138.685 366.208 138.442 365.313 138.442C364.427 138.442 363.677 138.676 363.063 139.145C362.458 139.614 361.994 140.278 361.67 141.139C361.346 142 361.184 143.014 361.184 144.182ZM384.234 154.371C382.981 154.371 381.864 154.153 380.884 153.719C379.904 153.276 379.129 152.624 378.558 151.763C377.995 150.893 377.714 149.811 377.714 148.516C377.714 147.425 377.914 146.509 378.315 145.767C378.715 145.026 379.261 144.429 379.951 143.977C380.641 143.526 381.425 143.185 382.303 142.955C383.19 142.724 384.119 142.562 385.09 142.469C386.232 142.349 387.153 142.239 387.852 142.136C388.55 142.026 389.058 141.864 389.373 141.651C389.688 141.437 389.846 141.122 389.846 140.705V140.628C389.846 139.818 389.59 139.192 389.079 138.749C388.576 138.305 387.86 138.084 386.931 138.084C385.951 138.084 385.171 138.301 384.592 138.736C384.012 139.162 383.629 139.699 383.441 140.347L378.404 139.938C378.66 138.744 379.163 137.713 379.913 136.844C380.663 135.966 381.63 135.293 382.815 134.824C384.008 134.347 385.388 134.108 386.957 134.108C388.048 134.108 389.092 134.236 390.089 134.491C391.094 134.747 391.985 135.143 392.761 135.68C393.545 136.217 394.163 136.908 394.614 137.751C395.066 138.587 395.292 139.588 395.292 140.756V154H390.127V151.277H389.974C389.658 151.891 389.237 152.432 388.708 152.901C388.18 153.361 387.545 153.723 386.803 153.987C386.062 154.243 385.205 154.371 384.234 154.371ZM385.793 150.612C386.594 150.612 387.302 150.455 387.915 150.139C388.529 149.815 389.011 149.381 389.36 148.835C389.71 148.29 389.884 147.672 389.884 146.982V144.898C389.714 145.009 389.479 145.111 389.181 145.205C388.891 145.29 388.563 145.371 388.197 145.447C387.83 145.516 387.464 145.58 387.097 145.639C386.731 145.69 386.398 145.737 386.1 145.78C385.461 145.874 384.903 146.023 384.425 146.227C383.948 146.432 383.577 146.709 383.313 147.058C383.049 147.399 382.917 147.825 382.917 148.337C382.917 149.078 383.185 149.645 383.722 150.037C384.268 150.42 384.958 150.612 385.793 150.612ZM402.176 161.364C401.486 161.364 400.838 161.308 400.233 161.197C399.636 161.095 399.142 160.963 398.75 160.801L399.977 156.736C400.616 156.932 401.192 157.038 401.703 157.055C402.223 157.072 402.67 156.953 403.045 156.697C403.429 156.442 403.74 156.007 403.979 155.393L404.298 154.562L397.254 134.364H402.982L407.047 148.784H407.251L411.355 134.364H417.121L409.489 156.122C409.122 157.179 408.624 158.099 407.993 158.884C407.371 159.676 406.582 160.286 405.628 160.712C404.673 161.146 403.523 161.364 402.176 161.364Z" fill="#66D6FF"/>
</svg>
